**ABCDEFGHIJKLMNOPQRSTUVWXYZabcdefghijklmnopqrstuvwxyz**************************
**PARASOLID !"#$%&'()*+,-./:;<=>?@[\]^_`{|}~0123456789**************************
**PART1;
MC=^_;
MC_MODEL=genuineintel family 6 model 5 stepping 7, intel(r) xeon(r) silver 4214 cpu @ 2.20ghz;
MC_ID=^_;
OS=windows nt (x64);
OS_RELEASE=6.3 windows 10 education (build 17763) ;
FRU=mdc_ugii_v7.0_djl_can_vrh;
APPL=unigraphics;
SITE=unknown;
USER=^_;
FORMAT=text;
GUISE=transmit;
KEY=model11;
FILE=^_;
DATE=8-apr-2026;
**PART2;
SCH=SCH_3501171_35102;
USFLD_SIZE=0;
**PART3;
**END_OF_HEADER*****************************************************************
T51 : TRANSMIT FILE created by modeller version 350117123 SCH_3501171_35102_1300
6231 0 176 6 14 PART_XMT_BLOCK9 Part list9 n_entries0 0 1 d16 index_map_offset0
 0 1 d9 index_map82 0 20 schema_embedding_map82 0 16 mesh_offset_data206 0 7 ent
ries1005 1 T11 1 11 0 0 0 0 2 3 4 5 6 7 8 9 10 11 12 12 36 CCCI7 lattice222 0 CC
CI4 mesh1006 0 I8 polyline1008 0 CCCCCCCDI5 owner1040 0 CCCI16 boundary_lattice2
22 0 CCCI13 boundary_mesh1006 0 I17 boundary_polyline1008 0 CCCA16 index_map_off
set0 0 1 dA9 index_map82 0 A17 node_id_index_map82 0 A20 schema_embedding_map82
 0 A5 child12 0 A14 lowest_node_id0 0 1 dA16 mesh_offset_data206 0 Z2 285 13 14
 0 0 0 0 0 0 0 1e3 1e-8 0 3 0 1 0 1 1 15 0 16 17 18 0 0 19 20 21 0 0 0 0 0 0 0 1
2 3 7 22 23 0 0 0 0 0 0 0 1e3 1e-8 0 4 2 1 0 2 1 24 0 0 25 0 0 0 26 0 0 0 0 0 0
 0 0 0 12 4 11 27 28 0 0 0 0 0 0 0 1e3 1e-8 0 5 3 1 0 2 1 29 0 0 30 31 0 0 32 0
 33 0 0 0 0 0 0 0 12 5 11 34 35 0 0 0 0 0 0 0 1e3 1e-8 0 6 4 1 0 2 1 36 0 0 37 3
8 0 0 39 0 40 0 0 0 0 0 0 0 12 6 11 41 42 0 0 0 0 0 0 0 1e3 1e-8 0 7 5 1 0 2 1 4
3 0 0 44 45 0 0 46 0 47 0 0 0 0 0 0 0 12 7 11 48 49 0 0 0 0 0 0 0 1e3 1e-8 0 8 6
 1 0 2 1 50 0 0 51 52 0 0 53 0 54 0 0 0 0 0 0 0 12 8 5 55 56 0 0 0 0 0 0 0 1e3 1
e-8 0 9 7 1 0 2 1 57 0 0 0 58 0 0 59 0 60 0 0 0 0 0 0 0 12 9 5 61 62 0 0 0 0 0 0
 0 1e3 1e-8 0 10 8 1 0 2 1 63 0 0 0 64 0 0 65 0 66 0 0 0 0 0 0 0 12 10 5 67 68 0
 0 0 0 0 0 0 1e3 1e-8 0 11 9 1 0 2 1 69 0 0 0 70 0 0 71 0 72 0 0 0 0 0 0 0 12 11
 5 73 74 0 0 0 0 0 0 0 1e3 1e-8 0 12 10 1 0 2 1 75 0 0 0 76 0 0 77 0 78 0 0 0 0
 0 0 0 12 12 5 79 80 0 0 0 0 0 0 0 1e3 1e-8 0 81 11 1 0 2 1 82 0 0 0 83 0 0 84 0
 85 0 0 0 0 0 0 0 81 255 1 79 5 86 12 0 0 0 0 87 70 11 CI9 list_type0 0 1 uI10 n
otransmit0 0 1 lCCCDCCDI12 finger_index0 0 1 dI12 finger_block1012 0 CZ80 0 4 T1
2 0 0 1 20 1 88 88 13 255 82 3 0 12 0 0 0 85 84 0 29 255 83 4 0 85 0 0 0 0 0 19
 9 CCCCCCI5 frame230 0 CA5 owner12 0 Z84 1 0 12 0 0 82 0 V0 18 255 85 2 0 0 0 0
 83 ?82 74 4 CI16 index_map_offset0 0 1 dCCZ20 88 1 0 0 79 0 0 0 0 0 0 0 0 0 0 0
 0 0 0 0 0 0 0 0 80 7 CCCCCDI12 legal_owners0 16 1 lCZ1 86 89 90 8040 0 0 0 0 3
 5 0 0 0 TTTFFFFFFFFFFFFF2 83 255 3 87 .6 .4 .4 79 255 17 90 SDL/TYSA_COLOUR_281
 1 73 5 86 11 0 0 0 0 91 70 74 0 4 T11 0 0 1 20 1 92 92 13 75 3 0 11 0 0 0 78 77
 0 29 76 4 0 78 0 0 0 0 0 19 77 1 0 11 0 0 75 0 V0 18 78 2 0 0 0 0 76 ?75 74 20
 92 1 0 0 73 0 0 0 0 0 0 0 0 0 0 0 0 0 0 0 0 0 0 0 83 3 91 .6 .4 .4 81 1 67 5 86
 10 0 0 0 0 93 70 68 0 4 T10 0 0 1 20 1 94 94 13 69 3 0 10 0 0 0 72 71 0 29 70 4
 0 72 0 0 0 0 0 19 71 1 0 10 0 0 69 0 V0 18 72 2 0 0 0 0 70 ?69 74 20 94 1 0 0 6
7 0 0 0 0 0 0 0 0 0 0 0 0 0 0 0 0 0 0 0 83 3 93 0 0 1 81 1 61 5 86 9 0 0 0 0 95
 70 62 0 4 T9 0 0 1 20 1 96 96 13 63 3 0 9 0 0 0 66 65 0 29 64 4 0 66 0 0 .127 .
1016 .0762 19 65 1 0 9 0 0 63 0 V0 18 66 2 0 0 0 0 64 ?63 74 20 96 1 0 0 61 0 0
 0 0 0 0 0 0 0 0 0 0 0 0 0 0 0 0 0 83 3 95 .6 .4 .4 81 1 55 5 86 8 0 0 0 0 97 70
 56 0 4 T8 0 0 1 20 1 98 98 13 57 3 0 8 0 0 0 60 59 0 29 58 4 0 60 0 0 .127 .101
6 .0762 19 59 1 0 8 0 0 57 0 V0 18 60 2 0 0 0 0 58 ?57 74 20 98 1 0 0 55 0 0 0 0
 0 0 0 0 0 0 0 0 0 0 0 0 0 0 0 83 3 97 0 0 1 81 1 48 11 99 7 100 0 0 0 101 70 49
 0 4 T7 0 0 2 20 1 102 102 13 50 3 0 7 0 0 103 0 53 0 30 255 51 9 0 7 104 0 105
 +0 0 0 1 0 0 29 52 7 0 54 106 0 .127 0 0 19 53 1 0 7 0 0 50 0 V0 18 54 5 0 107
 0 108 52 ?7 17 255 107 0 0 0 0 54 109 103 0 0 +18 108 2 0 109 54 0 106 ?7 17 10
9 0 0 0 0 108 107 103 0 0 -29 106 4 0 108 0 52 0 0 0 16 255 103 6 0 ?107 0 0 104
 0 0 50 133 255 104 8 0 103 0 51 0 +51 0 0 0 .127 0 0 0 .127 141 255 105 104 105
 105 51 74 20 102 2 0 0 100 48 0 0 0 0 0 0 0 0 0 0 0 0 0 0 0 0 0 0 81 1 100 10 8
6 7 0 48 0 0 110 83 3 110 .3019607843137255 .427450980392157 .701960784313725 80
 1 99 111 112 8038 0 0 0 0 0 0 0 0 0 TTTTTTTTTTTTTFTF10 98 255 5 101 76 105 110
 101 49 79 14 112 SDL/TYSA_UNAME81 1 41 11 99 6 113 0 0 0 114 70 42 0 4 T6 0 0 2
 20 1 115 115 13 43 3 0 6 0 0 116 0 46 0 30 44 9 0 6 117 0 118 +.127 0 0 0 1 0 2
9 45 7 0 47 119 0 .127 .1016 0 19 46 1 0 6 0 0 43 0 V0 18 47 5 0 120 0 121 45 ?6
 17 120 0 0 0 0 47 122 116 0 0 +18 121 2 0 122 47 0 119 ?6 17 122 0 0 0 0 121 12
0 116 0 0 -29 119 4 0 121 0 45 .127 0 0 16 116 6 0 ?120 0 0 117 0 0 43 133 117 8
 0 116 0 44 0 +44 .127 0 0 .127 .1016 0 0 .1016 141 118 117 118 118 44 74 20 115
 2 0 0 113 41 0 0 0 0 0 0 0 0 0 0 0 0 0 0 0 0 0 0 81 1 113 10 86 6 0 41 0 0 123
 83 3 123 .3019607843137255 .427450980392157 .701960784313725 98 5 114 76 105 11
0 101 50 81 1 34 11 99 5 124 0 0 0 125 70 35 0 4 T5 0 0 2 20 1 126 126 13 36 3 0
 5 0 0 127 0 39 0 30 37 9 0 5 128 0 129 +.127 .1016 0 -1 0 0 29 38 7 0 40 130 0
 0 .1016 0 19 39 1 0 5 0 0 36 0 V0 18 40 5 0 131 0 132 38 ?5 17 131 0 0 0 0 40 1
33 127 0 0 +18 132 2 0 133 40 0 130 ?5 17 133 0 0 0 0 132 131 127 0 0 -29 130 4
 0 132 0 38 .127 .1016 0 16 127 6 0 ?131 0 0 128 0 0 36 133 128 8 0 127 0 37 0 +
37 .127 .1016 0 0 .1016 0 0 .127 141 129 128 129 129 37 74 20 126 2 0 0 124 34 0
 0 0 0 0 0 0 0 0 0 0 0 0 0 0 0 0 0 81 1 124 10 86 5 0 34 0 0 134 83 3 134 .30196
07843137255 .427450980392157 .701960784313725 98 5 125 76 105 110 101 51 81 1 27
 11 99 4 135 0 0 0 136 70 28 0 4 T4 0 0 2 20 1 137 137 13 29 3 0 4 0 0 138 0 32
 0 30 30 9 0 4 139 0 140 +0 .1016 0 0 -1 0 29 31 7 0 33 141 0 0 0 0 19 32 1 0 4
 0 0 29 0 V0 18 33 5 0 142 0 143 31 ?4 17 142 0 0 0 0 33 144 138 0 0 +18 143 2 0
 144 33 0 141 ?4 17 144 0 0 0 0 143 142 138 0 0 -29 141 4 0 143 0 31 0 .1016 0 1
6 138 6 0 ?142 0 0 139 0 0 29 133 139 8 0 138 0 30 0 +30 0 .1016 0 0 0 0 0 .1016
 141 140 139 140 140 30 74 20 137 2 0 0 135 27 0 0 0 0 0 0 0 0 0 0 0 0 0 0 0 0 0
 0 81 1 135 10 86 4 0 27 0 0 145 83 3 145 .3019607843137255 .427450980392157 .70
1960784313725 98 5 136 76 105 110 101 52 81 1 22 7 99 3 146 0 0 0 147 70 23 0 4
 T3 0 0 2 20 1 148 148 13 24 3 0 3 0 0 149 0 26 0 31 255 25 5 0 3 150 0 151 +.05
08 .0508 .0762 0 0 1 612323399573677e-31 1 0 .0127 19 26 1 0 3 0 0 24 0 V0 133 1
50 4 0 149 0 25 0 +25 .0508 .0635 .0762 .0508 .0635 .0762 0 6.28318530717959 141
 151 150 151 151 25 16 149 2 0 ?152 0 0 150 0 0 24 17 152 0 0 0 0 0 153 149 0 0
 +17 153 0 0 0 0 0 152 149 0 0 -74 20 148 2 0 0 146 22 0 0 0 0 0 0 0 0 0 0 0 0 0
 0 0 0 0 0 81 1 146 6 86 3 0 22 0 0 154 83 3 154 .3019607843137255 .427450980392
157 .701960784313725 98 4 147 65 114 99 49 81 1 13 269 86 2 155 0 0 0 156 70 14
 0 4 T2 0 0 5 20 1 157 157 13 15 91 0 2 0 158 0 0 159 0 50 255 16 86 0 158 160 0
 0 +0 .1016 .0762 1 0 0 0 0 -1 30 17 90 0 161 162 0 0 +0 .1016 .0762 0 0 -1 29 1
8 67 0 163 164 0 .127 .1016 0 19 19 1 0 2 159 0 165 0 V0 16 20 133 166 ?167 0 16
8 169 0 0 2 18 21 15 0 170 0 171 172 ?2 17 170 0 173 174 175 21 176 177 0 178 +1
8 171 10 0 175 21 179 180 ?2 29 172 17 0 21 180 181 .127 .1016 .0762 29 180 12 0
 171 182 172 .127 0 .0762 29 181 70 0 183 172 184 0 .1016 0 18 183 60 0 185 186
 187 181 ?2 29 184 69 0 186 181 164 0 0 0 18 186 58 0 188 189 183 184 ?2 29 164
 68 0 189 184 18 .127 0 0 18 189 56 0 190 163 186 164 ?2 17 190 0 191 192 193 18
9 188 194 0 195 +18 163 54 0 196 197 189 18 ?2 17 196 0 198 178 195 163 199 200
 0 201 +18 197 2 0 174 179 163 202 ?2 17 174 0 173 203 170 197 204 205 0 206 +18
 179 5 0 207 171 197 182 ?2 29 202 4 0 197 208 182 0 .1016 .0762 29 208 236 0 18
7 0 202 .0508 .0508 .097784535069175 29 182 7 0 179 202 180 0 0 .0762 18 187 211
 0 209 183 0 208 ?2 17 209 0 210 209 209 187 0 0 0 0 ?15 255 210 217 0 209 211 0
 14 255 211 212 212 ?213 214 215 15 216 -0 0 213 214 165 81 1 212 266 89 211 217
 0 218 219 220 14 213 223 219 ?0 211 221 15 222 -0 0 0 211 165 14 214 155 218 ?2
11 223 224 15 225 +0 0 211 223 165 15 215 216 0 226 211 210 52 255 216 233 0 211
 0 222 0 +.0508 .0508 .1016 0 0 1 .00635 .857167300702112 .515038074910054 1 0 0
 13 165 3 0 0 0 0 0 0 19 158 14 158 82 227 ?228 0 229 15 16 -0 0 228 0 165 81 1
 227 250 89 158 230 0 0 231 232 14 228 80 231 ?233 158 191 15 160 -0 0 233 158 1
65 15 229 81 0 234 158 0 17 234 0 229 235 236 186 237 238 0 0 +17 235 0 229 239
 234 179 193 168 0 0 -17 236 0 229 234 239 183 206 161 0 237 +17 237 0 240 241 1
88 183 234 238 0 0 -16 238 52 242 ?234 194 243 244 0 0 2 81 1 242 282 89 238 245
 0 246 247 248 16 194 50 246 ?190 200 238 249 0 0 2 16 243 148 247 ?250 238 251
 252 0 0 2 30 244 66 0 238 253 249 0 +0 .1016 0 0 -1 0 30 253 22 0 205 254 244 0
 +.127 .1016 .0762 -1 0 0 30 249 65 0 194 244 255 0 +0 0 0 1 0 0 30 255 64 0 200
 249 256 0 +.127 0 0 0 1 0 16 200 48 257 ?196 258 194 255 0 0 2 30 256 63 0 258
 255 259 0 +.127 .1016 0 -1 0 0 16 258 46 260 ?185 261 200 256 0 0 2 30 259 87 0
 262 256 263 0 +.127 .1016 .0762 0 0 -1 16 262 71 264 ?201 265 161 259 0 0 2 30
 263 88 0 265 259 162 0 +.127 0 .0762 0 0 -1 16 265 72 266 ?195 168 262 263 0 0
 2 30 162 89 0 168 263 17 0 +0 0 .0762 0 0 -1 16 168 73 267 ?193 20 265 162 0 0
 2 81 1 267 271 89 168 268 0 166 266 269 17 193 0 191 190 207 186 235 168 0 234
 +15 191 79 0 190 228 0 17 207 0 191 193 192 179 175 270 0 203 -17 192 0 191 207
 190 171 195 265 0 176 -17 175 0 173 170 203 171 207 270 0 192 +16 270 11 271 ?1
75 177 261 272 0 0 2 17 203 0 173 175 174 179 239 261 0 235 +15 173 23 0 203 273
 0 17 239 0 229 236 235 197 203 261 0 0 -16 261 6 274 ?203 270 258 275 0 0 2 81
 1 274 278 89 261 276 0 271 260 277 30 275 9 0 261 169 272 0 +0 .1016 .0762 0 -1
 0 31 169 166 0 20 252 275 0 +.0508 .0508 .0762 0 0 1 612323399573677e-31 1 0 .0
127 30 272 14 0 270 275 254 0 +0 0 .0762 1 0 0 30 254 19 0 177 272 253 0 +.127 0
 .0762 0 1 0 16 177 16 278 ?170 205 270 254 0 0 2 81 1 278 276 89 177 279 0 280
 271 281 16 205 20 280 ?174 161 177 253 0 0 2 81 1 280 275 89 205 282 0 283 278
 284 16 161 74 283 ?236 262 205 17 0 0 2 81 1 283 274 89 161 285 0 264 280 286 8
0 1 89 0 287 8001 0 0 0 0 3 5 0 0 0 FFFFTFTFFFFFFFFF2 81 1 285 123 288 161 0 283
 289 290 291 81 1 264 273 89 262 292 0 266 283 293 83 3 286 .611764705882353 .65
8823529411765 .670588235294118 81 1 292 117 288 262 0 264 276 268 294 81 1 266 2
72 89 265 295 0 267 264 296 83 3 293 .611764705882353 .658823529411765 .67058823
5294118 81 1 295 112 288 265 0 266 0 279 297 83 3 296 .611764705882353 .65882352
9411765 .670588235294118 80 1 288 298 299 9000 1 1 1 1 1 1 1 1 0 FFFFTFTFFFFFFFF
F3 81 1 279 113 288 177 0 278 295 245 300 84 255 32 297 9fd0b29591f9cc3dd668ac4c
705d457181 1 245 114 288 238 0 242 279 301 302 84 32 300 1019e4e6c5609f485a33f8b
6bbb63ba381 1 301 115 288 200 0 257 245 276 303 84 32 302 36ad43458328eaf3aa18c8
5005db8adf81 1 257 280 89 200 301 0 260 246 304 81 1 276 116 288 261 0 274 301 2
92 305 84 32 303 e36037aacae42840c6c6397a958b33e484 32 305 1c31b89dfdf1d8fd999cb
415e90e7b7c81 1 260 279 89 258 306 0 274 257 307 81 1 246 281 89 194 289 0 257 2
42 308 83 3 304 .611764705882353 .658823529411765 .670588235294118 81 1 289 122
 288 194 0 246 309 285 310 83 3 308 .611764705882353 .658823529411765 .670588235
294118 81 1 309 121 288 270 0 271 282 289 311 84 32 310 9c87f92a2cd51f27c3f5b23d
3d959ab681 1 271 277 89 270 309 0 278 274 312 81 1 282 120 288 205 0 280 306 309
 313 84 32 311 b9156d9da777eb5fb7ca90434e1710ea81 1 306 119 288 258 0 260 268 28
2 314 84 32 313 0846b1c2e0d0b5b22d115ef2dfcf3a8981 1 268 118 288 168 0 267 292 3
06 315 84 32 314 a22144668071414e9a4b1b2b22c3f4af84 32 315 69af42681310825767123
c3f02303ebb83 3 312 .611764705882353 .658823529411765 .670588235294118 83 3 307
 .611764705882353 .658823529411765 .670588235294118 79 15 299 UGS/ObjectState84
 32 294 70b64e31c578d2537c421aeb5829afe481 1 290 125 288 233 0 316 285 317 318 8
4 32 291 9a4ea72f37f11aaeb3a0f7e87f6e360514 233 78 319 ?320 228 198 15 321 -0 0
 320 228 165 81 1 316 253 322 233 290 319 323 324 325 81 1 317 126 288 320 0 324
 290 326 327 84 32 318 448e5dc0cf4f450a2387cdd6fd67d8ae14 320 76 328 ?273 233 32
9 15 330 -0 0 273 233 165 81 1 324 255 322 320 317 328 316 331 332 81 1 326 127
 288 158 0 230 317 333 334 84 32 327 576d9ecccbf7af8080ca79fae0bbcf2181 1 230 24
9 322 158 326 227 0 323 335 81 1 333 128 288 336 0 337 326 338 339 84 32 334 a7e
f2ad21a374caf84567182c098169114 336 42 340 ?223 273 240 15 341 -0 0 223 273 165
 81 1 337 259 322 336 333 340 331 342 343 81 1 338 129 288 228 0 323 333 344 345
 84 32 339 7f42c6118334704fc8e03eda7db2d5fc81 1 323 251 322 228 338 231 230 316
 346 81 1 344 177 288 20 0 166 338 347 348 84 32 345 8c75d141c5c52a8b322a2b81759
4b9cb81 1 166 270 89 20 344 0 219 267 349 81 1 347 178 288 243 0 247 344 350 351
 84 32 348 ab1c97599ae35a03f57032da3e691dac81 1 247 283 89 243 347 0 242 352 353
 81 1 350 179 288 273 0 331 347 354 355 84 32 351 617d7b56aab370bf72d4309749c6ad
2914 273 24 356 ?336 320 357 15 358 +0 0 336 320 165 81 1 331 257 322 273 350 35
6 324 337 359 81 1 354 181 288 223 0 342 350 360 361 84 32 355 0b2810eca28a5f427
2ff3caf1a65f89d14 223 150 362 ?214 336 363 15 364 -0 0 214 336 165 81 1 342 261
 322 223 354 362 337 365 366 81 1 360 242 288 251 0 352 354 367 368 84 32 361 ca
0fcd70dd5ac1d0c4f29ca69f0ebf1416 251 205 352 ?226 243 369 370 0 0 2 81 1 352 284
 89 251 360 0 247 371 372 81 1 367 243 288 369 0 371 360 373 374 84 32 368 b0062
ec276fecf2179aec9e62566a98116 369 207 371 ?375 251 0 376 0 0 2 81 1 371 285 89 3
69 367 0 352 0 377 81 1 373 244 288 214 0 365 367 378 379 84 32 374 6bfb7cccafc7
cb949e5c1b973833a3f981 1 365 263 322 214 373 218 342 217 380 81 1 378 245 288 21
1 0 217 373 381 382 84 32 379 a5df5a8a2454bb5222db403b2c5945a981 1 217 265 322 2
11 378 212 365 383 384 81 1 381 246 288 213 0 383 378 0 385 84 32 382 49c0644a1b
e9ea551396ae58267efce181 1 383 267 322 213 381 219 217 0 386 84 32 385 8a1f621da
56fac1aaa3bcc2a4d3ae77780 1 322 387 388 8015 0 0 0 0 3 5 0 0 0 FFFFTFFFFFFFFFFF2
 81 1 219 268 89 213 383 0 212 166 389 83 1 386 0 83 3 389 .611764705882353 .658
823529411765 .670588235294118 79 21 388 SDL/TYSA_TRANSLUCENCY83 1 384 0 81 1 218
 264 89 214 365 0 362 212 390 83 1 380 0 81 1 362 262 89 223 342 0 340 218 391 8
3 3 390 .611764705882353 .658823529411765 .670588235294118 81 1 340 260 89 336 3
37 0 356 362 392 83 3 391 .611764705882353 .658823529411765 .670588235294118 81
 1 356 258 89 273 331 0 328 340 393 83 3 392 .611764705882353 .658823529411765 .
670588235294118 81 1 328 256 89 320 324 0 319 356 394 83 3 393 .611764705882353
 .658823529411765 .670588235294118 81 1 319 254 89 233 316 0 231 328 395 83 3 39
4 .611764705882353 .658823529411765 .670588235294118 81 1 231 252 89 228 323 0 2
27 319 396 83 3 395 .611764705882353 .658823529411765 .670588235294118 83 3 396
 .611764705882353 .658823529411765 .670588235294118 83 3 377 .611764705882353 .6
58823529411765 .670588235294118 17 375 0 224 375 375 0 397 369 0 0 +31 376 234 0
 369 370 252 0 +.0508 .0508 .1524 0 0 -1 -1 0 0 .00635 31 370 235 0 251 0 376 0
 -.0508 .0508 .1016 0 0 -1 -1 0 0 .00635 31 252 167 0 243 376 169 0 +.0508 .0508
 .1524 0 0 1 612323399573677e-31 1 0 .0127 15 224 193 0 375 214 398 17 397 0 399
 397 397 0 375 369 0 0 -15 399 228 0 397 213 0 15 398 158 0 250 214 0 17 250 0 3
98 250 250 0 400 243 0 0 +17 400 0 363 400 400 0 250 243 0 0 -15 363 153 0 400 2
23 401 15 401 154 0 167 223 0 17 167 0 401 167 167 0 402 20 0 0 +17 402 0 357 40
2 402 0 167 20 0 0 -15 357 135 0 402 273 173 83 3 372 .611764705882353 .65882352
9411765 .670588235294118 17 226 0 215 226 226 0 403 251 0 0 +17 403 0 221 403 40
3 0 226 251 0 0 -15 221 227 0 403 213 399 83 1 366 0 51 255 364 163 0 223 225 35
8 0 -.0508 .0508 .1524 0 0 -1 .0127 -1 0 0 50 225 165 0 214 222 364 0 +.0508 .05
08 .1524 0 0 1 1 0 0 50 358 25 0 273 364 341 0 +0 0 .0762 0 0 1 1 0 0 50 341 62
 0 336 358 330 0 +0 0 0 0 0 1 1 0 0 50 330 83 0 320 341 321 0 +.127 .1016 .0762
 0 -1 0 0 0 -1 50 321 84 0 233 330 160 0 +.127 0 .0762 -1 0 0 0 0 1 50 160 85 0
 228 321 16 0 +0 0 .0762 0 1 0 0 0 1 51 222 231 0 213 216 225 0 +.0508 .0508 .15
24 0 0 -1 .00635 -1 0 0 83 1 359 0 83 3 353 .611764705882353 .658823529411765 .6
70588235294118 83 3 349 .611764705882353 .658823529411765 .670588235294118 83 1
 346 0 83 1 343 0 15 240 45 0 237 336 0 83 1 335 0 83 1 332 0 15 329 75 0 185 32
0 0 17 185 0 329 206 201 183 241 258 0 236 +17 206 0 329 204 185 197 236 161 0 2
39 -17 201 0 329 185 204 163 178 262 0 241 +17 241 0 240 199 237 163 185 258 0 0
 -17 199 0 240 188 241 189 196 200 0 0 -17 188 0 240 237 199 186 190 194 0 193 -
17 204 0 329 201 206 21 174 205 0 0 -17 178 0 198 176 196 21 201 262 0 204 -15 1
98 77 0 196 233 0 17 176 0 198 195 178 171 170 177 0 0 -17 195 0 198 196 176 189
 192 265 0 199 +83 1 325 0 79 15 287 SDL/TYSA_COLOUR83 3 284 .611764705882353 .6
58823529411765 .670588235294118 83 3 281 .611764705882353 .658823529411765 .6705
88235294118 83 3 277 .611764705882353 .658823529411765 .670588235294118 83 3 269
 .611764705882353 .658823529411765 .670588235294118 83 3 248 .611764705882353 .6
58823529411765 .670588235294118 83 3 232 .611764705882353 .658823529411765 .6705
88235294118 83 3 220 .611764705882353 .658823529411765 .670588235294118 19 159 9
2 0 2 0 19 15 0 S0 74 20 157 5 0 0 381 155 383 371 13 0 0 0 0 0 0 0 0 0 0 0 0 0
 0 0 81 2 155 176 404 2 0 13 0 0 405 406 80 2 404 407 408 8004 0 0 0 0 3 5 0 0 0
 FFTFFFFFFFFFFFFF2 3 83 1 405 7830.64504251646 84 8 406 Kg/Cu M 79 16 408 SDL/TY
SA_DENSITY83 3 156 .611764705882353 .658823529411765 .670588235294118 1 0 
