**ABCDEFGHIJKLMNOPQRSTUVWXYZabcdefghijklmnopqrstuvwxyz**************************
**PARASOLID !"#$%&'()*+,-./:;<=>?@[\]^_`{|}~0123456789**************************
**PART1;
MC=^_;
MC_MODEL=genuineintel family 6 model 5 stepping 7, intel(r) xeon(r) silver 4214 cpu @ 2.20ghz;
MC_ID=^_;
OS=windows nt (x64);
OS_RELEASE=6.3 windows 10 education (build 17763) ;
FRU=mdc_ugii_v7.0_djl_can_vrh;
APPL=unigraphics;
SITE=unknown;
USER=^_;
FORMAT=text;
GUISE=transmit;
KEY=model4;
FILE=^_;
DATE=2-apr-2026;
**PART2;
SCH=SCH_3501171_35102;
USFLD_SIZE=0;
**PART3;
**END_OF_HEADER*****************************************************************
T51 : TRANSMIT FILE created by modeller version 350117123 SCH_3501171_35102_1300
6231 0 176 6 14 PART_XMT_BLOCK9 Part list9 n_entries0 0 1 d16 index_map_offset0
 0 1 d9 index_map82 0 20 schema_embedding_map82 0 16 mesh_offset_data206 0 7 ent
ries1005 1 T14 1 14 0 0 0 0 2 3 4 5 6 7 8 9 10 11 12 13 14 15 12 36 CCCI7 lattic
e222 0 CCCI4 mesh1006 0 I8 polyline1008 0 CCCCCCCDI5 owner1040 0 CCCI16 boundary
_lattice222 0 CCCI13 boundary_mesh1006 0 I17 boundary_polyline1008 0 CCCA16 inde
x_map_offset0 0 1 dA9 index_map82 0 A17 node_id_index_map82 0 A20 schema_embeddi
ng_map82 0 A5 child12 0 A14 lowest_node_id0 0 1 dA16 mesh_offset_data206 0 Z2 69
 16 17 0 0 0 0 0 0 0 1e3 1e-8 0 3 0 1 0 1 1 18 0 19 20 0 0 0 21 22 0 0 0 0 0 0 0
 0 12 3 178 23 24 0 0 0 0 0 0 0 1e3 1e-8 0 4 2 1 0 1 1 25 0 26 27 28 0 0 29 30 3
1 0 0 0 0 0 0 0 12 4 7 32 33 0 0 0 0 0 0 0 1e3 1e-8 0 5 3 1 0 2 1 34 0 0 35 0 0
 0 36 0 0 0 0 0 0 0 0 0 12 5 11 37 38 0 0 0 0 0 0 0 1e3 1e-8 0 6 4 1 0 2 1 39 0
 0 40 41 0 0 42 0 43 0 0 0 0 0 0 0 12 6 11 44 45 0 0 0 0 0 0 0 1e3 1e-8 0 7 5 1
 0 2 1 46 0 0 47 48 0 0 49 0 50 0 0 0 0 0 0 0 12 7 11 51 52 0 0 0 0 0 0 0 1e3 1e
-8 0 8 6 1 0 2 1 53 0 0 54 55 0 0 56 0 57 0 0 0 0 0 0 0 12 8 11 58 59 0 0 0 0 0
 0 0 1e3 1e-8 0 9 7 1 0 2 1 60 0 0 61 62 0 0 63 0 64 0 0 0 0 0 0 0 12 9 5 65 66
 0 0 0 0 0 0 0 1e3 1e-8 0 10 8 1 0 2 1 67 0 0 0 68 0 0 69 0 70 0 0 0 0 0 0 0 12
 10 5 71 72 0 0 0 0 0 0 0 1e3 1e-8 0 11 9 1 0 2 1 73 0 0 0 74 0 0 75 0 76 0 0 0
 0 0 0 0 12 11 5 77 78 0 0 0 0 0 0 0 1e3 1e-8 0 12 10 1 0 2 1 79 0 0 0 80 0 0 81
 0 82 0 0 0 0 0 0 0 12 12 5 83 84 0 0 0 0 0 0 0 1e3 1e-8 0 13 11 1 0 2 1 85 0 0
 0 86 0 0 87 0 88 0 0 0 0 0 0 0 12 13 5 89 90 0 0 0 0 0 0 0 1e3 1e-8 0 14 12 1 0
 2 1 91 0 0 0 92 0 0 93 0 94 0 0 0 0 0 0 0 12 14 5 95 96 0 0 0 0 0 0 0 1e3 1e-8
 0 15 13 1 0 2 1 97 0 0 0 98 0 0 99 0 100 0 0 0 0 0 0 0 12 15 5 101 102 0 0 0 0
 0 0 0 1e3 1e-8 0 103 14 1 0 2 1 104 0 0 0 105 0 0 106 0 107 0 0 0 0 0 0 0 81 25
5 1 101 5 108 15 0 0 0 0 109 70 11 CI9 list_type0 0 1 uI10 notransmit0 0 1 lCCCD
CCDI12 finger_index0 0 1 dI12 finger_block1012 0 CZ102 0 4 T15 0 0 1 20 1 110 11
0 13 255 104 3 0 15 0 0 0 107 106 0 29 255 105 4 0 107 0 0 0 0 0 19 9 CCCCCCI5 f
rame230 0 CA5 owner12 0 Z106 1 0 15 0 0 104 0 V0 18 255 107 2 0 0 0 0 105 ?104 7
4 4 CI16 index_map_offset0 0 1 dCCZ20 110 1 0 0 101 0 0 0 0 0 0 0 0 0 0 0 0 0 0
 0 0 0 0 0 80 7 CCCCCDI12 legal_owners0 16 1 lCZ1 108 111 112 8040 0 0 0 0 3 5 0
 0 0 TTTFFFFFFFFFFFFF2 83 255 3 109 .6 .4 .4 79 255 17 112 SDL/TYSA_COLOUR_281 1
 95 5 108 14 0 0 0 0 113 70 96 0 4 T14 0 0 1 20 1 114 114 13 97 3 0 14 0 0 0 100
 99 0 29 98 4 0 100 0 0 0 0 0 19 99 1 0 14 0 0 97 0 V0 18 100 2 0 0 0 0 98 ?97 7
4 20 114 1 0 0 95 0 0 0 0 0 0 0 0 0 0 0 0 0 0 0 0 0 0 0 83 3 113 0 0 1 81 1 89 5
 108 13 0 0 0 0 115 70 90 0 4 T13 0 0 1 20 1 116 116 13 91 3 0 13 0 0 0 94 93 0
 29 92 4 0 94 0 0 0 0 0 19 93 1 0 13 0 0 91 0 V0 18 94 2 0 0 0 0 92 ?91 74 20 11
6 1 0 0 89 0 0 0 0 0 0 0 0 0 0 0 0 0 0 0 0 0 0 0 83 3 115 .6 .4 .4 81 1 83 5 108
 12 0 0 0 0 117 70 84 0 4 T12 0 0 1 20 1 118 118 13 85 3 0 12 0 0 0 88 87 0 29 8
6 4 0 88 0 0 0 0 0 19 87 1 0 12 0 0 85 0 V0 18 88 2 0 0 0 0 86 ?85 74 20 118 1 0
 0 83 0 0 0 0 0 0 0 0 0 0 0 0 0 0 0 0 0 0 0 83 3 117 .6 .4 .4 81 1 77 5 108 11 0
 0 0 0 119 70 78 0 4 T11 0 0 1 20 1 120 120 13 79 3 0 11 0 0 0 82 81 0 29 80 4 0
 82 0 0 0 0 0 19 81 1 0 11 0 0 79 0 V0 18 82 2 0 0 0 0 80 ?79 74 20 120 1 0 0 77
 0 0 0 0 0 0 0 0 0 0 0 0 0 0 0 0 0 0 0 83 3 119 0 0 1 81 1 71 5 108 10 0 0 0 0 1
21 70 72 0 4 T10 0 0 1 20 1 122 122 13 73 3 0 10 0 0 0 76 75 0 29 74 4 0 76 0 0
 0 0 0 19 75 1 0 10 0 0 73 0 V0 18 76 2 0 0 0 0 74 ?73 74 20 122 1 0 0 71 0 0 0
 0 0 0 0 0 0 0 0 0 0 0 0 0 0 0 0 83 3 121 .6 .4 .4 81 1 65 5 108 9 0 0 0 0 123 7
0 66 0 4 T9 0 0 1 20 1 124 124 13 67 3 0 9 0 0 0 70 69 0 29 68 4 0 70 0 0 0 0 0
 19 69 1 0 9 0 0 67 0 V0 18 70 2 0 0 0 0 68 ?67 74 20 124 1 0 0 65 0 0 0 0 0 0 0
 0 0 0 0 0 0 0 0 0 0 0 0 83 3 123 .6 .4 .4 81 1 58 11 125 8 126 0 0 0 127 70 59
 0 4 T8 0 0 2 20 1 128 128 13 60 3 0 8 0 0 129 0 63 0 30 255 61 9 0 8 130 0 131
 +0 .0992335717385074 0 0 -1 0 29 62 7 0 64 132 0 0 -.002366428261492595 0 19 63
 1 0 8 0 0 60 0 V0 18 64 5 0 133 0 134 62 ?8 17 255 133 0 0 0 0 64 135 129 0 0 +
18 134 2 0 135 64 0 132 ?8 17 135 0 0 0 0 134 133 129 0 0 -29 132 4 0 134 0 62 0
 .0992335717385074 0 16 255 129 6 0 ?133 0 0 130 0 0 60 133 255 130 8 0 129 0 61
 0 +61 0 .0992335717385074 0 0 -.002366428261492595 0 0 .1016 141 255 131 130 13
1 131 61 74 20 128 2 0 0 126 58 0 0 0 0 0 0 0 0 0 0 0 0 0 0 0 0 0 0 81 1 126 10
 108 8 0 58 0 0 136 83 3 136 .3019607843137255 .427450980392157 .701960784313725
 80 1 125 137 138 8038 0 0 0 0 0 0 0 0 0 TTTTTTTTTTTTTFTF10 98 255 5 127 76 105
 110 101 52 79 14 138 SDL/TYSA_UNAME81 1 51 11 125 7 139 0 0 0 140 70 52 0 4 T7
 0 0 2 20 1 141 141 13 53 3 0 7 0 0 142 0 56 0 30 54 9 0 7 143 0 144 +.1016 .099
2335717385074 0 -1 0 0 29 55 7 0 57 145 0 0 .0992335717385074 0 19 56 1 0 7 0 0
 53 0 V0 18 57 5 0 146 0 147 55 ?7 17 146 0 0 0 0 57 148 142 0 0 +18 147 2 0 148
 57 0 145 ?7 17 148 0 0 0 0 147 146 142 0 0 -29 145 4 0 147 0 55 .1016 .09923357
17385074 0 16 142 6 0 ?146 0 0 143 0 0 53 133 143 8 0 142 0 54 0 +54 .1016 .0992
335717385074 0 0 .0992335717385074 0 0 .1016 141 144 143 144 144 54 74 20 141 2
 0 0 139 51 0 0 0 0 0 0 0 0 0 0 0 0 0 0 0 0 0 0 81 1 139 10 108 7 0 51 0 0 149 8
3 3 149 .3019607843137255 .427450980392157 .701960784313725 98 5 140 76 105 110
 101 51 81 1 44 11 125 6 150 0 0 0 151 70 45 0 4 T6 0 0 2 20 1 152 152 13 46 3 0
 6 0 0 153 0 49 0 30 47 9 0 6 154 0 155 +.1016 -.002366428261492545 0 0 1 0 29 4
8 7 0 50 156 0 .1016 .0992335717385074 0 19 49 1 0 6 0 0 46 0 V0 18 50 5 0 157 0
 158 48 ?6 17 157 0 0 0 0 50 159 153 0 0 +18 158 2 0 159 50 0 156 ?6 17 159 0 0
 0 0 158 157 153 0 0 -29 156 4 0 158 0 48 .1016 -.002366428261492545 0 16 153 6
 0 ?157 0 0 154 0 0 46 133 154 8 0 153 0 47 0 +47 .1016 -.002366428261492545 0 .
1016 .0992335717385074 0 0 .1016 141 155 154 155 155 47 74 20 152 2 0 0 150 44 0
 0 0 0 0 0 0 0 0 0 0 0 0 0 0 0 0 0 81 1 150 10 108 6 0 44 0 0 160 83 3 160 .3019
607843137255 .427450980392157 .701960784313725 98 5 151 76 105 110 101 50 81 1 3
7 11 125 5 161 0 0 0 162 70 38 0 4 T5 0 0 2 20 1 163 163 13 39 3 0 5 0 0 164 0 4
2 0 30 40 9 0 5 165 0 166 +0 -.002366428261492545 0 1 0 0 29 41 7 0 43 167 0 .10
16 -.002366428261492545 0 19 42 1 0 5 0 0 39 0 V0 18 43 5 0 168 0 169 41 ?5 17 1
68 0 0 0 0 43 170 164 0 0 +18 169 2 0 170 43 0 167 ?5 17 170 0 0 0 0 169 168 164
 0 0 -29 167 4 0 169 0 41 0 -.002366428261492545 0 16 164 6 0 ?168 0 0 165 0 0 3
9 133 165 8 0 164 0 40 0 +40 0 -.002366428261492545 0 .1016 -.002366428261492545
 0 0 .1016 141 166 165 166 166 40 74 20 163 2 0 0 161 37 0 0 0 0 0 0 0 0 0 0 0 0
 0 0 0 0 0 0 81 1 161 10 108 5 0 37 0 0 171 83 3 171 .3019607843137255 .42745098
0392157 .701960784313725 98 5 162 76 105 110 101 49 81 1 32 7 125 4 172 0 0 0 17
3 70 33 0 4 T4 0 0 2 20 1 174 174 13 34 3 0 4 0 0 175 0 36 0 31 255 35 5 0 4 176
 0 177 +0 0 0 0 0 1 1 0 0 .0635000000004346 19 36 1 0 4 0 0 34 0 V0 133 176 4 0
 175 0 35 0 +35 .0635000000004346 0 0 .0635000000004346 0 0 0 6.28318530717959 1
41 177 176 177 177 35 16 175 2 0 ?178 0 0 176 0 0 34 17 178 0 0 0 0 0 179 175 0
 0 +17 179 0 0 0 0 0 178 175 0 0 -74 20 174 2 0 0 172 32 0 0 0 0 0 0 0 0 0 0 0 0
 0 0 0 0 0 0 81 1 172 6 108 4 0 32 0 0 180 83 3 180 .3019607843137255 .427450980
392157 .701960784313725 98 4 173 65 114 99 49 81 1 23 137 108 3 181 0 0 0 182 70
 24 0 4 T3 0 0 5 20 1 183 183 13 25 91 0 3 0 184 0 0 185 0 50 255 26 86 0 184 18
6 0 0 +0 .0992335717385074 .0762 1 0 0 0 0 -1 30 27 90 0 187 188 0 0 +0 .0992335
717385074 .0762 0 0 -1 29 28 67 0 189 190 0 .1016 .0992335717385074 0 19 29 1 0
 3 185 0 191 0 V0 16 30 73 192 ?193 0 194 188 0 0 3 18 31 15 0 195 0 196 197 ?3
 17 195 0 198 199 200 31 201 202 0 203 +18 196 10 0 200 31 204 205 ?3 29 197 17
 0 31 205 206 .1016 .0992335717385074 .0762 29 205 12 0 196 207 197 .1016 -.0023
66428261492545 .0762 29 206 70 0 208 197 209 0 .0992335717385074 0 18 208 60 0 2
10 211 0 206 ?3 29 209 69 0 211 206 190 0 -.002366428261492555 0 18 211 58 0 212
 213 208 209 ?3 29 190 68 0 213 209 28 .1016 -.002366428261492545 0 18 213 56 0
 214 189 211 190 ?3 17 214 0 215 216 193 213 212 217 0 218 +18 189 54 0 219 220
 213 28 ?3 17 219 0 221 203 218 189 222 223 0 224 +18 220 2 0 199 204 189 225 ?3
 17 199 0 198 226 195 220 227 228 0 229 +18 204 5 0 230 196 220 207 ?3 29 225 4
 0 220 0 207 0 .0992335717385074 .0762 29 207 7 0 204 225 205 0 -.00236642826149
2555 .0762 17 230 0 215 193 216 204 200 231 0 226 -15 255 215 79 0 214 232 0 17
 193 0 215 214 230 211 233 30 0 234 +17 216 0 215 230 214 196 218 194 0 201 -17
 200 0 198 195 226 196 230 231 0 216 +16 231 11 235 ?200 202 236 237 0 0 3 17 22
6 0 198 200 199 204 238 236 0 233 +15 198 23 0 226 239 0 17 238 0 240 241 233 22
0 226 236 0 0 -16 236 6 242 ?226 231 243 244 0 0 3 17 233 0 240 238 234 204 193
 30 0 0 -15 240 81 0 234 184 0 17 234 0 240 233 241 211 245 246 0 0 +17 241 0 24
0 234 238 208 229 187 0 245 +17 245 0 247 248 212 208 234 246 0 0 -16 246 52 249
 ?234 217 0 250 0 0 3 81 1 249 178 111 246 251 0 252 0 253 16 217 50 252 ?214 22
3 246 254 0 0 3 30 250 66 0 246 255 254 0 +0 .0992335717385074 0 0 -1 0 30 255 2
2 0 228 256 250 0 +.1016 .0992335717385074 .0762 -1 0 0 30 254 65 0 217 250 257
 0 +0 -.002366428261492545 0 1 0 0 30 257 64 0 223 254 258 0 +.1016 -.0023664282
61492545 0 0 1 0 16 223 48 259 ?219 243 217 257 0 0 3 30 258 63 0 243 257 260 0
 +.1016 .0992335717385074 0 -1 0 0 16 243 46 261 ?210 236 223 258 0 0 3 30 260 8
7 0 262 258 263 0 +.1016 .0992335717385074 .0762 0 0 -1 16 262 71 264 ?224 194 1
87 260 0 0 3 30 263 88 0 194 260 188 0 +.1016 -.002366428261492545 .0762 0 0 -1
 16 194 72 265 ?218 30 262 263 0 0 3 30 188 89 0 30 263 27 0 +0 -.00236642826149
2555 .0762 0 0 -1 81 1 265 168 111 194 266 0 192 264 267 17 218 0 221 219 201 21
3 216 194 0 222 +15 221 77 0 219 268 0 17 201 0 221 218 203 196 195 202 0 0 -17
 222 0 247 212 248 213 219 223 0 0 -15 247 45 0 245 269 0 17 212 0 247 245 222 2
11 214 217 0 193 -17 248 0 247 222 245 189 210 243 0 0 -17 210 0 270 229 224 208
 248 243 0 241 +15 270 75 0 210 271 0 17 229 0 270 227 210 220 241 187 0 238 -17
 224 0 270 210 227 189 203 262 0 248 +17 227 0 270 224 229 31 199 228 0 0 -17 20
3 0 221 201 219 31 224 262 0 227 -16 228 20 272 ?199 187 202 255 0 0 3 81 1 272
 171 111 228 273 0 274 275 276 16 187 74 274 ?241 262 228 27 0 0 3 16 202 16 275
 ?195 228 231 256 0 0 3 81 1 275 172 111 202 277 0 272 235 278 30 256 19 0 202 2
37 255 0 +.1016 -.002366428261492545 .0762 0 1 0 30 237 14 0 231 244 256 0 +0 -.
002366428261492545 .0762 1 0 0 30 244 9 0 236 0 237 0 +0 .0992335717385074 .0762
 0 -1 0 80 1 111 0 279 8001 0 0 0 0 3 5 0 0 0 FFFFTFTFFFFFFFFF2 81 1 277 123 280
 202 0 275 281 282 283 81 1 235 173 111 231 284 0 275 242 285 83 3 278 .61176470
5882353 .658823529411765 .670588235294118 81 1 284 117 280 231 0 235 273 266 286
 81 1 242 174 111 236 287 0 235 261 288 83 3 285 .611764705882353 .6588235294117
65 .670588235294118 81 1 287 113 280 236 0 242 251 289 290 81 1 261 175 111 243
 281 0 242 259 291 83 3 288 .611764705882353 .658823529411765 .670588235294118 8
1 1 281 122 280 243 0 261 292 277 293 81 1 259 176 111 223 294 0 261 252 295 83
 3 291 .611764705882353 .658823529411765 .670588235294118 81 1 294 115 280 223 0
 259 289 273 296 81 1 252 177 111 217 297 0 259 249 298 83 3 295 .61176470588235
3 .658823529411765 .670588235294118 81 1 297 120 280 217 0 252 299 292 300 83 3
 298 .611764705882353 .658823529411765 .670588235294118 80 1 280 301 302 9000 1
 1 1 1 1 1 1 1 0 FFFFTFTFFFFFFFFF3 81 1 299 119 280 30 0 192 266 297 303 81 1 29
2 121 280 187 0 274 297 281 304 84 255 32 300 9d08304a1a48e21f1d153049b69e707d81
 1 274 170 111 187 292 0 264 272 305 84 32 304 9fb0d925cc39ce0b4340ec189a730c8b8
1 1 264 169 111 262 289 0 265 274 306 83 3 305 .611764705882353 .658823529411765
 .670588235294118 81 1 289 114 280 262 0 264 287 294 307 83 3 306 .6117647058823
53 .658823529411765 .670588235294118 84 32 307 88225282adf64b78c0b58d5d63d1bc2c8
1 1 192 167 111 30 299 0 308 265 309 81 1 266 118 280 194 0 265 284 299 310 84 3
2 303 9d1c75cdafac0657e913e58be6434c0f84 32 310 4f2b9c6f88a38db0d063037777c1aaae
81 1 308 166 111 269 282 0 311 192 312 83 3 309 .611764705882353 .65882352941176
5 .670588235294118 14 255 269 42 308 ?0 239 247 25 313 -0 0 0 239 191 81 1 282 1
24 280 269 0 308 277 314 315 81 1 311 165 111 239 316 0 317 308 318 83 3 312 .61
1764705882353 .658823529411765 .670588235294118 14 239 24 311 ?269 271 198 25 31
9 +0 0 269 271 191 81 1 316 128 280 239 0 311 320 321 322 81 1 317 164 111 271 3
21 0 323 311 324 83 3 318 .611764705882353 .658823529411765 .670588235294118 14
 271 76 317 ?239 268 270 25 325 -0 0 239 268 191 81 1 321 129 280 271 0 317 316
 0 326 81 1 323 163 111 268 327 0 328 317 329 83 3 324 .611764705882353 .6588235
29411765 .670588235294118 14 268 78 323 ?271 232 221 25 330 -0 0 271 232 191 81
 1 327 126 280 268 0 323 314 320 331 81 1 328 162 111 232 320 0 332 323 333 83 3
 329 .611764705882353 .658823529411765 .670588235294118 14 232 80 328 ?268 184 2
15 25 186 -0 0 268 184 191 81 1 320 127 280 232 0 328 327 316 334 81 1 332 161 1
11 184 314 0 0 328 335 83 3 333 .611764705882353 .658823529411765 .6705882352941
18 14 184 82 332 ?232 0 240 25 26 -0 0 232 0 191 81 1 314 125 280 184 0 332 282
 327 336 83 3 335 .611764705882353 .658823529411765 .670588235294118 84 32 336 b
76ef85d18dfcd91327da2c8de223aa113 191 3 0 0 0 0 0 0 29 184 84 32 334 584680629e4
168e7bdd01032cf52147750 186 85 0 232 330 26 0 +0 -.002366428261492545 .0762 0 1
 0 0 0 1 50 330 84 0 268 325 186 0 +.1016 -.002366428261492545 .0762 -1 0 0 0 0
 1 50 325 83 0 271 313 330 0 +.1016 .0992335717385074 .0762 0 -1 0 0 0 -1 50 313
 62 0 269 319 325 0 +0 0 0 0 0 1 1 0 0 50 319 25 0 239 0 313 0 +0 0 .0762 0 0 1
 1 0 0 84 32 331 574bab4d50499e745a5c3b985f1e8ef384 32 326 9fb0102e56291d483111c
ee5b262cb3884 32 322 f372b9d5b03decee03c90d882fcf5b3984 32 315 6809ac6a53e7449db
2bf5579ff0c45c279 15 302 UGS/ObjectState81 1 273 116 280 228 0 272 294 284 337 8
4 32 296 7403cb1c39f10f7b79a6963f4f1efeab84 32 337 7173807a624df77705121bea18860
e0084 32 293 fb1106555f9e92f5d288dcc81dc6f8b281 1 251 112 280 246 0 249 0 287 33
8 84 32 290 b5943bad797739dfc4dfc97152c12e2984 32 338 2b893b332a0436671fa2437579
46370f84 32 286 4d051f5e41c7a0cb61141e4a1584e76284 32 283 d61c6ab18258c919b375e1
dadb2f24f679 15 279 SDL/TYSA_COLOUR83 3 276 .611764705882353 .658823529411765 .6
70588235294118 83 3 267 .611764705882353 .658823529411765 .670588235294118 83 3
 253 .611764705882353 .658823529411765 .670588235294118 19 185 92 0 3 0 29 25 0
 S0 74 20 183 5 0 0 339 181 321 23 249 0 0 0 0 0 0 0 0 0 0 0 0 0 0 0 81 2 339 10
9 340 3 0 181 0 0 341 342 81 1 181 110 343 3 339 23 0 0 344 80 1 343 345 346 805
1 0 0 0 0 3 5 0 0 0 TFTFFFFFFFFFFFFF1 82 255 1 344 0 79 21 346 SDL/TYSA_SCALE_FA
CTOR80 2 340 347 348 8004 0 0 0 0 3 5 0 0 0 FFTFFFFFFFFFFFFF2 3 83 1 341 7830.64
504251646 84 8 342 Kg/Cu M 79 16 348 SDL/TYSA_DENSITY83 3 182 .611764705882353 .
658823529411765 .670588235294118 81 1 16 54 108 2 349 0 0 0 350 70 17 0 4 T2 0 0
 5 20 1 351 351 13 18 30 0 2 0 352 0 0 353 0 51 255 19 29 0 352 354 0 0 -0 0 .05
08 0 0 -1 .0635000000004346 -1 0 0 31 20 24 0 355 356 0 0 +0 0 0 0 0 1 1 0 0 .06
35000000004346 19 21 1 0 2 353 0 357 0 V0 16 22 2 358 ?359 0 355 356 0 0 2 81 1
 358 68 111 22 360 0 361 362 363 17 359 0 364 359 359 0 365 22 0 0 +16 355 21 36
2 ?366 22 0 20 0 0 2 31 356 4 0 22 0 20 0 +0 0 .0508 0 0 1 1 0 0 .06350000000043
46 81 1 362 69 111 355 367 0 358 0 368 17 366 0 369 366 366 0 370 355 0 0 +15 36
9 27 0 366 352 0 17 370 0 371 370 370 0 366 355 0 0 -15 371 20 0 370 372 0 14 37
2 17 361 ?0 373 371 18 354 -0 0 0 373 357 81 1 361 67 111 372 374 0 375 358 376
 14 373 6 375 ?372 352 364 18 377 +0 0 372 352 357 50 354 23 0 372 377 19 0 +0 0
 0 0 0 1 1 0 0 13 357 3 0 0 0 0 0 0 21 352 14 352 26 378 ?373 0 379 18 19 -0 0 3
73 0 357 81 1 378 65 111 352 380 0 0 375 381 15 379 25 0 365 352 369 17 365 0 37
9 365 365 0 359 22 0 0 -81 1 380 47 280 352 0 378 367 382 383 81 1 375 66 111 37
3 382 0 378 361 384 83 3 381 .611764705882353 .658823529411765 .670588235294118
 81 1 382 48 280 373 0 375 380 374 385 83 3 384 .611764705882353 .65882352941176
5 .670588235294118 81 1 374 49 280 372 0 361 382 0 386 84 32 385 94056dd430ab318
e5c317ab1935f8a8f84 32 386 87fefd6940f562330d34dabd8ff081b281 1 367 46 280 355 0
 362 360 380 387 84 32 383 3ec8dd7a474f2abd2bf9bb4036fdaa0481 1 360 45 280 22 0
 358 0 367 388 84 32 387 014ebf2d222049bf870d966d14bc928c84 32 388 d4b5a8bad9ed0
a4c26649ccb17e71acc50 377 7 0 373 0 354 0 +0 0 .0508 0 0 1 1 0 0 15 364 5 0 359
 373 0 83 3 376 .611764705882353 .658823529411765 .670588235294118 83 3 368 .611
764705882353 .658823529411765 .670588235294118 83 3 363 .611764705882353 .658823
529411765 .670588235294118 19 353 31 0 2 0 21 18 0 S0 74 20 351 5 0 0 389 349 37
4 16 362 0 0 0 0 0 0 0 0 0 0 0 0 0 0 0 81 2 389 42 340 2 0 349 0 0 390 391 81 1
 349 43 343 2 389 16 0 0 392 82 1 392 0 83 1 390 7830.64504251646 84 8 391 Kg/Cu
 M 83 3 350 .611764705882353 .658823529411765 .670588235294118 1 0 
