**ABCDEFGHIJKLMNOPQRSTUVWXYZabcdefghijklmnopqrstuvwxyz**************************
**PARASOLID !"#$%&'()*+,-./:;<=>?@[\]^_`{|}~0123456789**************************
**PART1;
MC=^_;
MC_MODEL=genuineintel family 6 model 5 stepping 7, intel(r) xeon(r) silver 4214 cpu @ 2.20ghz;
MC_ID=^_;
OS=windows nt (x64);
OS_RELEASE=6.3 windows 10 education (build 17763) ;
FRU=mdc_ugii_v7.0_djl_can_vrh;
APPL=unigraphics;
SITE=unknown;
USER=^_;
FORMAT=text;
GUISE=transmit;
KEY=model2_1;
FILE=^_;
DATE=2-apr-2026;
**PART2;
SCH=SCH_3501171_35102;
USFLD_SIZE=0;
**PART3;
**END_OF_HEADER*****************************************************************
T51 : TRANSMIT FILE created by modeller version 350117123 SCH_3501171_35102_1300
6231 0 176 6 14 PART_XMT_BLOCK9 Part list9 n_entries0 0 1 d16 index_map_offset0
 0 1 d9 index_map82 0 20 schema_embedding_map82 0 16 mesh_offset_data206 0 7 ent
ries1005 1 T8 1 8 0 0 0 0 2 3 4 5 6 7 8 9 12 36 CCCI7 lattice222 0 CCCI4 mesh100
6 0 I8 polyline1008 0 CCCCCCCDI5 owner1040 0 CCCI16 boundary_lattice222 0 CCCI13
 boundary_mesh1006 0 I17 boundary_polyline1008 0 CCCA16 index_map_offset0 0 1 dA
9 index_map82 0 A17 node_id_index_map82 0 A20 schema_embedding_map82 0 A5 child1
2 0 A14 lowest_node_id0 0 1 dA16 mesh_offset_data206 0 Z2 148 10 11 0 0 0 0 0 0
 0 1e3 1e-8 0 3 0 1 0 1 1 12 0 13 14 15 0 0 16 17 18 0 0 0 0 0 0 0 12 3 11 19 20
 0 0 0 0 0 0 0 1e3 1e-8 0 4 2 1 0 2 1 21 0 0 22 23 0 0 24 0 25 0 0 0 0 0 0 0 12
 4 11 26 27 0 0 0 0 0 0 0 1e3 1e-8 0 5 3 1 0 2 1 28 0 0 29 30 0 0 31 0 32 0 0 0
 0 0 0 0 12 5 11 33 34 0 0 0 0 0 0 0 1e3 1e-8 0 6 4 1 0 2 1 35 0 0 36 37 0 0 38
 0 39 0 0 0 0 0 0 0 12 6 11 40 41 0 0 0 0 0 0 0 1e3 1e-8 0 7 5 1 0 2 1 42 0 0 43
 44 0 0 45 0 46 0 0 0 0 0 0 0 12 7 5 47 48 0 0 0 0 0 0 0 1e3 1e-8 0 8 6 1 0 2 1
 49 0 0 0 50 0 0 51 0 52 0 0 0 0 0 0 0 12 8 5 53 54 0 0 0 0 0 0 0 1e3 1e-8 0 9 7
 1 0 2 1 55 0 0 0 56 0 0 57 0 58 0 0 0 0 0 0 0 12 9 5 59 60 0 0 0 0 0 0 0 1e3 1e
-8 0 61 8 1 0 2 1 62 0 0 0 63 0 0 64 0 65 0 0 0 0 0 0 0 81 255 1 59 5 66 9 0 0 0
 0 67 70 11 CI9 list_type0 0 1 uI10 notransmit0 0 1 lCCCDCCDI12 finger_index0 0
 1 dI12 finger_block1012 0 CZ60 0 4 T9 0 0 1 20 1 68 68 13 255 62 3 0 9 0 0 0 65
 64 0 29 255 63 4 0 65 0 0 0 0 0 19 9 CCCCCCI5 frame230 0 CA5 owner12 0 Z64 1 0
 9 0 0 62 0 V0 18 255 65 2 0 0 0 0 63 ?62 74 4 CI16 index_map_offset0 0 1 dCCZ20
 68 1 0 0 59 0 0 0 0 0 0 0 0 0 0 0 0 0 0 0 0 0 0 0 80 7 CCCCCDI12 legal_owners0
 16 1 lCZ1 66 69 70 8040 0 0 0 0 3 5 0 0 0 TTTFFFFFFFFFFFFF2 83 255 3 67 .6 .4 .
4 79 255 17 70 SDL/TYSA_COLOUR_281 1 53 5 66 8 0 0 0 0 71 70 54 0 4 T8 0 0 1 20
 1 72 72 13 55 3 0 8 0 0 0 58 57 0 29 56 4 0 58 0 0 0 0 0 19 57 1 0 8 0 0 55 0 V
0 18 58 2 0 0 0 0 56 ?55 74 20 72 1 0 0 53 0 0 0 0 0 0 0 0 0 0 0 0 0 0 0 0 0 0 0
 83 3 71 .6 .4 .4 81 1 47 5 66 7 0 0 0 0 73 70 48 0 4 T7 0 0 1 20 1 74 74 13 49
 3 0 7 0 0 0 52 51 0 29 50 4 0 52 0 0 0 0 0 19 51 1 0 7 0 0 49 0 V0 18 52 2 0 0
 0 0 50 ?49 74 20 74 1 0 0 47 0 0 0 0 0 0 0 0 0 0 0 0 0 0 0 0 0 0 0 83 3 73 0 0
 1 81 1 40 11 75 6 76 0 0 0 77 70 41 0 4 T6 0 0 2 20 1 78 78 13 42 3 0 6 0 0 79
 0 45 0 30 255 43 9 0 6 80 0 81 +0 -.002366428261492545 0 1 0 0 29 44 7 0 46 82
 0 .1016 -.002366428261492545 0 19 45 1 0 6 0 0 42 0 V0 18 46 5 0 83 0 84 44 ?6
 17 255 83 0 0 0 0 46 85 79 0 0 +18 84 2 0 85 46 0 82 ?6 17 85 0 0 0 0 84 83 79
 0 0 -29 82 4 0 84 0 44 0 -.002366428261492545 0 16 255 79 6 0 ?83 0 0 80 0 0 42
 133 255 80 8 0 79 0 43 0 +43 0 -.002366428261492545 0 .1016 -.00236642826149254
5 0 0 .1016 141 255 81 80 81 81 43 74 20 78 2 0 0 76 40 0 0 0 0 0 0 0 0 0 0 0 0
 0 0 0 0 0 0 81 1 76 10 66 6 0 40 0 0 86 83 3 86 .3019607843137255 .427450980392
157 .701960784313725 80 1 75 87 88 8038 0 0 0 0 0 0 0 0 0 TTTTTTTTTTTTTFTF10 98
 255 5 77 76 105 110 101 49 79 14 88 SDL/TYSA_UNAME81 1 33 11 75 5 89 0 0 0 90 7
0 34 0 4 T5 0 0 2 20 1 91 91 13 35 3 0 5 0 0 92 0 38 0 30 36 9 0 5 93 0 94 +.101
6 -.002366428261492545 0 0 1 0 29 37 7 0 39 95 0 .1016 .0992335717385074 0 19 38
 1 0 5 0 0 35 0 V0 18 39 5 0 96 0 97 37 ?5 17 96 0 0 0 0 39 98 92 0 0 +18 97 2 0
 98 39 0 95 ?5 17 98 0 0 0 0 97 96 92 0 0 -29 95 4 0 97 0 37 .1016 -.00236642826
1492545 0 16 92 6 0 ?96 0 0 93 0 0 35 133 93 8 0 92 0 36 0 +36 .1016 -.002366428
261492545 0 .1016 .0992335717385074 0 0 .1016 141 94 93 94 94 36 74 20 91 2 0 0
 89 33 0 0 0 0 0 0 0 0 0 0 0 0 0 0 0 0 0 0 81 1 89 10 66 5 0 33 0 0 99 83 3 99 .
3019607843137255 .427450980392157 .701960784313725 98 5 90 76 105 110 101 50 81
 1 26 11 75 4 100 0 0 0 101 70 27 0 4 T4 0 0 2 20 1 102 102 13 28 3 0 4 0 0 103
 0 31 0 30 29 9 0 4 104 0 105 +.1016 .0992335717385074 0 -1 0 0 29 30 7 0 32 106
 0 0 .0992335717385074 0 19 31 1 0 4 0 0 28 0 V0 18 32 5 0 107 0 108 30 ?4 17 10
7 0 0 0 0 32 109 103 0 0 +18 108 2 0 109 32 0 106 ?4 17 109 0 0 0 0 108 107 103
 0 0 -29 106 4 0 108 0 30 .1016 .0992335717385074 0 16 103 6 0 ?107 0 0 104 0 0
 28 133 104 8 0 103 0 29 0 +29 .1016 .0992335717385074 0 0 .0992335717385074 0 0
 .1016 141 105 104 105 105 29 74 20 102 2 0 0 100 26 0 0 0 0 0 0 0 0 0 0 0 0 0 0
 0 0 0 0 81 1 100 10 66 4 0 26 0 0 110 83 3 110 .3019607843137255 .4274509803921
57 .701960784313725 98 5 101 76 105 110 101 51 81 1 19 11 75 3 111 0 0 0 112 70
 20 0 4 T3 0 0 2 20 1 113 113 13 21 3 0 3 0 0 114 0 24 0 30 22 9 0 3 115 0 116 +
0 .0992335717385074 0 0 -1 0 29 23 7 0 25 117 0 0 -.002366428261492555 0 19 24 1
 0 3 0 0 21 0 V0 18 25 5 0 118 0 119 23 ?3 17 118 0 0 0 0 25 120 114 0 0 +18 119
 2 0 120 25 0 117 ?3 17 120 0 0 0 0 119 118 114 0 0 -29 117 4 0 119 0 23 0 .0992
335717385074 0 16 114 6 0 ?118 0 0 115 0 0 21 133 115 8 0 114 0 22 0 +22 0 .0992
335717385074 0 0 -.002366428261492555 0 0 .1016 141 116 115 116 116 22 74 20 113
 2 0 0 111 19 0 0 0 0 0 0 0 0 0 0 0 0 0 0 0 0 0 0 81 1 111 10 66 3 0 19 0 0 121
 83 3 121 .3019607843137255 .427450980392157 .701960784313725 98 5 112 76 105 11
0 101 52 81 1 10 136 66 2 122 0 0 0 123 70 11 0 4 T2 0 0 4 20 1 124 124 13 12 91
 0 2 0 125 0 0 126 0 50 255 13 86 0 125 127 0 0 +0 .0992335717385074 .1778 1 0 0
 0 0 -1 30 14 90 0 128 129 0 0 +0 .0992335717385074 .1778 0 0 -1 29 15 67 0 130
 131 0 .1016 .0992335717385074 0 19 16 1 0 2 126 0 132 0 V0 16 17 73 133 ?134 0
 135 129 0 0 2 18 18 15 0 136 0 137 138 ?2 17 136 0 139 140 141 18 142 143 0 144
 +18 137 10 0 141 18 145 146 ?2 29 138 17 0 18 146 147 .1016 .0992335717385074 .
1778 29 146 12 0 137 148 138 .1016 -.002366428261492545 .1778 29 147 70 0 149 13
8 150 0 .0992335717385074 0 18 149 60 0 151 152 0 147 ?2 29 150 69 0 152 147 131
 0 -.002366428261492555 0 18 152 58 0 153 154 149 150 ?2 29 131 68 0 154 150 15
 .1016 -.002366428261492545 0 18 154 56 0 155 130 152 131 ?2 17 155 0 156 157 13
4 154 153 158 0 159 +18 130 54 0 160 161 154 15 ?2 17 160 0 162 144 159 130 163
 164 0 165 +18 161 2 0 140 145 130 166 ?2 17 140 0 139 167 136 161 168 169 0 170
 +18 145 5 0 171 137 161 148 ?2 29 166 4 0 161 0 148 0 .0992335717385074 .1778 2
9 148 7 0 145 166 146 0 -.002366428261492555 .1778 17 171 0 156 134 157 145 141
 172 0 167 -15 255 156 79 0 155 173 0 17 134 0 156 155 171 152 174 17 0 175 +17
 157 0 156 171 155 137 159 135 0 142 -17 141 0 139 136 167 137 171 172 0 157 +16
 172 11 176 ?141 143 177 178 0 0 2 17 167 0 139 141 140 145 179 177 0 174 +15 13
9 23 0 167 180 0 17 179 0 181 182 174 161 167 177 0 0 -16 177 6 183 ?167 172 184
 185 0 0 2 17 174 0 181 179 175 145 134 17 0 0 -15 181 81 0 175 125 0 17 175 0 1
81 174 182 152 186 187 0 0 +17 182 0 181 175 179 149 170 128 0 186 +17 186 0 188
 189 153 149 175 187 0 0 -16 187 52 190 ?175 158 0 191 0 0 2 81 1 190 148 69 187
 192 0 193 0 194 16 158 50 193 ?155 164 187 195 0 0 2 30 191 66 0 187 196 195 0
 +0 .0992335717385074 0 0 -1 0 30 196 22 0 169 197 191 0 +.1016 .099233571738507
4 .1778 -1 0 0 30 195 65 0 158 191 198 0 +0 -.002366428261492545 0 1 0 0 30 198
 64 0 164 195 199 0 +.1016 -.002366428261492545 0 0 1 0 16 164 48 200 ?160 184 1
58 198 0 0 2 30 199 63 0 184 198 201 0 +.1016 .0992335717385074 0 -1 0 0 16 184
 46 202 ?151 177 164 199 0 0 2 30 201 87 0 203 199 204 0 +.1016 .099233571738507
4 .1778 0 0 -1 16 203 71 205 ?165 135 128 201 0 0 2 30 204 88 0 135 201 129 0 +.
1016 -.002366428261492545 .1778 0 0 -1 16 135 72 206 ?159 17 203 204 0 0 2 30 12
9 89 0 17 204 14 0 +0 -.002366428261492555 .1778 0 0 -1 81 1 206 138 69 135 207
 0 133 205 208 17 159 0 162 160 142 154 157 135 0 163 +15 162 77 0 160 209 0 17
 142 0 162 159 144 137 136 143 0 0 -17 163 0 188 153 189 154 160 164 0 0 -15 188
 45 0 186 210 0 17 153 0 188 186 163 152 155 158 0 134 -17 189 0 188 163 186 130
 151 184 0 0 -17 151 0 211 170 165 149 189 184 0 182 +15 211 75 0 151 212 0 17 1
70 0 211 168 151 161 182 128 0 179 -17 165 0 211 151 168 130 144 203 0 189 +17 1
68 0 211 165 170 18 140 169 0 0 -17 144 0 162 142 160 18 165 203 0 168 -16 169 2
0 213 ?140 128 143 196 0 0 2 81 1 213 141 69 169 214 0 215 216 217 16 128 74 215
 ?182 203 169 14 0 0 2 16 143 16 216 ?136 169 172 197 0 0 2 81 1 216 142 69 143
 218 0 213 176 219 30 197 19 0 143 178 196 0 +.1016 -.002366428261492545 .1778 0
 1 0 30 178 14 0 172 185 197 0 +0 -.002366428261492545 .1778 1 0 0 30 185 9 0 17
7 0 178 0 +0 .0992335717385074 .1778 0 -1 0 80 1 69 0 220 8001 0 0 0 0 3 5 0 0 0
 FFFFTFTFFFFFFFFF2 81 1 218 122 221 143 0 216 222 223 224 81 1 176 143 69 172 22
5 0 216 183 226 83 3 219 .611764705882353 .658823529411765 .670588235294118 81 1
 225 116 221 172 0 176 214 207 227 81 1 183 144 69 177 228 0 176 202 229 83 3 22
6 .611764705882353 .658823529411765 .670588235294118 81 1 228 112 221 177 0 183
 192 230 231 81 1 202 145 69 184 222 0 183 200 232 83 3 229 .611764705882353 .65
8823529411765 .670588235294118 81 1 222 121 221 184 0 202 233 218 234 81 1 200 1
46 69 164 235 0 202 193 236 83 3 232 .611764705882353 .658823529411765 .67058823
5294118 81 1 235 114 221 164 0 200 230 214 237 81 1 193 147 69 158 238 0 200 190
 239 83 3 236 .611764705882353 .658823529411765 .670588235294118 81 1 238 119 22
1 158 0 193 240 233 241 83 3 239 .611764705882353 .658823529411765 .670588235294
118 80 1 221 242 243 9000 1 1 1 1 1 1 1 1 0 FFFFTFTFFFFFFFFF3 81 1 240 118 221 1
7 0 133 207 238 244 81 1 233 120 221 128 0 215 238 222 245 84 255 32 241 9d08304
a1a48e21f1d153049b69e707d81 1 215 140 69 128 233 0 205 213 246 84 32 245 6e86edd
1f793a4bf6b3130cd5f64174781 1 205 139 69 203 230 0 206 215 247 83 3 246 .6117647
05882353 .658823529411765 .670588235294118 81 1 230 113 221 203 0 205 228 235 24
8 83 3 247 .611764705882353 .658823529411765 .670588235294118 84 32 248 726272bc
99c16407a28549c8a98d652481 1 133 137 69 17 240 0 249 206 250 81 1 207 117 221 13
5 0 206 225 240 251 84 32 244 839e30d953ea4bf7a0e511ef9c185c1184 32 251 3908e556
e63557cea89fdd0b6b16d05c81 1 249 135 69 210 223 0 252 133 253 83 3 250 .61176470
5882353 .658823529411765 .670588235294118 14 255 210 42 249 ?0 180 188 12 254 -0
 0 0 180 132 81 1 223 123 221 210 0 249 218 255 256 81 1 252 134 69 180 257 0 25
8 249 259 83 3 253 .611764705882353 .658823529411765 .670588235294118 14 180 24
 252 ?210 212 139 12 260 +0 0 210 212 132 81 1 257 127 221 180 0 252 261 262 263
 81 1 258 133 69 212 262 0 264 252 265 83 3 259 .611764705882353 .65882352941176
5 .670588235294118 14 212 76 258 ?180 209 211 12 266 -0 0 180 209 132 81 1 262 1
28 221 212 0 258 257 0 267 81 1 264 132 69 209 268 0 269 258 270 83 3 265 .61176
4705882353 .658823529411765 .670588235294118 14 209 78 264 ?212 173 162 12 271 -
0 0 212 173 132 81 1 268 125 221 209 0 264 255 261 272 81 1 269 131 69 173 261 0
 273 264 274 83 3 270 .611764705882353 .658823529411765 .670588235294118 14 173
 80 269 ?209 125 156 12 127 -0 0 209 125 132 81 1 261 126 221 173 0 269 268 257
 275 81 1 273 130 69 125 255 0 0 269 276 83 3 274 .611764705882353 .658823529411
765 .670588235294118 14 125 82 273 ?173 0 181 12 13 -0 0 173 0 132 81 1 255 124
 221 125 0 273 223 268 277 83 3 276 .611764705882353 .658823529411765 .670588235
294118 84 32 277 0d3b9ad79216a10c787d3d7e21494b3a13 132 3 0 0 0 0 0 0 16 125 84
 32 275 9a4956269d2a557fec835fe8b7a28f6d50 127 85 0 173 271 13 0 +0 -.0023664282
61492545 .1778 0 1 0 0 0 1 50 271 84 0 209 266 127 0 +.1016 -.002366428261492545
 .1778 -1 0 0 0 0 1 50 266 83 0 212 254 271 0 +.1016 .0992335717385074 .1778 0 -
1 0 0 0 -1 50 254 62 0 210 260 266 0 +0 0 0 0 0 1 1 0 0 50 260 25 0 180 0 254 0
 +0 0 .1778 0 0 1 1 0 0 84 32 272 3ed1e41f8428ad9b35bb57727969307084 32 267 078d
ad3243923b98bdf4c7d4ff03d3d484 32 263 f4cc24583a62b3bb4778498f8e65bbe884 32 256
 6809ac6a53e7449db2bf5579ff0c45c279 15 243 UGS/ObjectState81 1 214 115 221 169 0
 213 235 225 278 84 32 237 7403cb1c39f10f7b79a6963f4f1efeab84 32 278 af44719a0b2
16800a4003224b14f657b84 32 234 fb1106555f9e92f5d288dcc81dc6f8b281 1 192 111 221
 187 0 190 0 228 279 84 32 231 0a03d1c0ad0922c80b4bb0e29e05771284 32 279 2b893b3
32a0436671fa243757946370f84 32 227 7e6abb9f955d5dfdae13f7ec6c629bec84 32 224 c94
42ae3ff6f7065b05d4af58bea5baf79 15 220 SDL/TYSA_COLOUR83 3 217 .611764705882353
 .658823529411765 .670588235294118 83 3 208 .611764705882353 .658823529411765 .6
70588235294118 83 3 194 .611764705882353 .658823529411765 .670588235294118 19 12
6 92 0 2 0 16 12 0 S0 74 20 124 4 0 0 122 262 190 10 0 0 0 0 0 0 0 0 0 0 0 0 0 0
 0 0 81 2 122 109 280 2 0 10 0 0 281 282 80 2 280 283 284 8004 0 0 0 0 3 5 0 0 0
 FFTFFFFFFFFFFFFF2 3 83 1 281 7830.64504251646 84 8 282 Kg/Cu M 79 16 284 SDL/TY
SA_DENSITY83 3 123 .611764705882353 .658823529411765 .670588235294118 1 0 
