**ABCDEFGHIJKLMNOPQRSTUVWXYZabcdefghijklmnopqrstuvwxyz**************************
**PARASOLID !"#$%&'()*+,-./:;<=>?@[\]^_`{|}~0123456789**************************
**PART1;
MC=^_;
MC_MODEL=genuineintel family 6 model 5 stepping 7, intel(r) xeon(r) silver 4214 cpu @ 2.20ghz;
MC_ID=^_;
OS=windows nt (x64);
OS_RELEASE=6.3 windows 10 education (build 17763) ;
FRU=mdc_ugii_v7.0_djl_can_vrh;
APPL=unigraphics;
SITE=unknown;
USER=^_;
FORMAT=text;
GUISE=transmit;
KEY=model3_3;
FILE=^_;
DATE=2-apr-2026;
**PART2;
SCH=SCH_3501171_35102;
USFLD_SIZE=0;
**PART3;
**END_OF_HEADER*****************************************************************
T51 : TRANSMIT FILE created by modeller version 350117123 SCH_3501171_35102_1300
6231 0 176 6 14 PART_XMT_BLOCK9 Part list9 n_entries0 0 1 d16 index_map_offset0
 0 1 d9 index_map82 0 20 schema_embedding_map82 0 16 mesh_offset_data206 0 7 ent
ries1005 1 T11 1 11 0 0 0 0 2 3 4 5 6 7 8 9 10 11 12 12 36 CCCI7 lattice222 0 CC
CI4 mesh1006 0 I8 polyline1008 0 CCCCCCCDI5 owner1040 0 CCCI16 boundary_lattice2
22 0 CCCI13 boundary_mesh1006 0 I17 boundary_polyline1008 0 CCCA16 index_map_off
set0 0 1 dA9 index_map82 0 A17 node_id_index_map82 0 A20 schema_embedding_map82
 0 A5 child12 0 A14 lowest_node_id0 0 1 dA16 mesh_offset_data206 0 Z2 300 13 14
 0 0 0 0 0 0 0 1e3 1e-8 0 3 0 1 0 1 1 15 0 16 17 18 0 0 19 20 21 0 0 0 0 0 0 0 1
2 3 7 22 23 0 0 0 0 0 0 0 1e3 1e-8 0 4 2 1 0 2 1 24 0 0 25 0 0 0 26 0 0 0 0 0 0
 0 0 0 12 4 11 27 28 0 0 0 0 0 0 0 1e3 1e-8 0 5 3 1 0 2 1 29 0 0 30 31 0 0 32 0
 33 0 0 0 0 0 0 0 12 5 11 34 35 0 0 0 0 0 0 0 1e3 1e-8 0 6 4 1 0 2 1 36 0 0 37 3
8 0 0 39 0 40 0 0 0 0 0 0 0 12 6 11 41 42 0 0 0 0 0 0 0 1e3 1e-8 0 7 5 1 0 2 1 4
3 0 0 44 45 0 0 46 0 47 0 0 0 0 0 0 0 12 7 11 48 49 0 0 0 0 0 0 0 1e3 1e-8 0 8 6
 1 0 2 1 50 0 0 51 52 0 0 53 0 54 0 0 0 0 0 0 0 12 8 5 55 56 0 0 0 0 0 0 0 1e3 1
e-8 0 9 7 1 0 2 1 57 0 0 0 58 0 0 59 0 60 0 0 0 0 0 0 0 12 9 5 61 62 0 0 0 0 0 0
 0 1e3 1e-8 0 10 8 1 0 2 1 63 0 0 0 64 0 0 65 0 66 0 0 0 0 0 0 0 12 10 5 67 68 0
 0 0 0 0 0 0 1e3 1e-8 0 11 9 1 0 2 1 69 0 0 0 70 0 0 71 0 72 0 0 0 0 0 0 0 12 11
 5 73 74 0 0 0 0 0 0 0 1e3 1e-8 0 12 10 1 0 2 1 75 0 0 0 76 0 0 77 0 78 0 0 0 0
 0 0 0 12 12 5 79 80 0 0 0 0 0 0 0 1e3 1e-8 0 81 11 1 0 2 1 82 0 0 0 83 0 0 84 0
 85 0 0 0 0 0 0 0 81 255 1 79 5 86 12 0 0 0 0 87 70 11 CI9 list_type0 0 1 uI10 n
otransmit0 0 1 lCCCDCCDI12 finger_index0 0 1 dI12 finger_block1012 0 CZ80 0 4 T1
2 0 0 1 20 1 88 88 13 255 82 3 0 12 0 0 0 85 84 0 29 255 83 4 0 85 0 0 0 0 0 19
 9 CCCCCCI5 frame230 0 CA5 owner12 0 Z84 1 0 12 0 0 82 0 V0 18 255 85 2 0 0 0 0
 83 ?82 74 4 CI16 index_map_offset0 0 1 dCCZ20 88 1 0 0 79 0 0 0 0 0 0 0 0 0 0 0
 0 0 0 0 0 0 0 0 80 7 CCCCCDI12 legal_owners0 16 1 lCZ1 86 89 90 8040 0 0 0 0 3
 5 0 0 0 TTTFFFFFFFFFFFFF2 83 255 3 87 .6 .4 .4 79 255 17 90 SDL/TYSA_COLOUR_281
 1 73 5 86 11 0 0 0 0 91 70 74 0 4 T11 0 0 1 20 1 92 92 13 75 3 0 11 0 0 0 78 77
 0 29 76 4 0 78 0 0 0 0 0 19 77 1 0 11 0 0 75 0 V0 18 78 2 0 0 0 0 76 ?75 74 20
 92 1 0 0 73 0 0 0 0 0 0 0 0 0 0 0 0 0 0 0 0 0 0 0 83 3 91 .6 .4 .4 81 1 67 5 86
 10 0 0 0 0 93 70 68 0 4 T10 0 0 1 20 1 94 94 13 69 3 0 10 0 0 0 72 71 0 29 70 4
 0 72 0 0 0 0 0 19 71 1 0 10 0 0 69 0 V0 18 72 2 0 0 0 0 70 ?69 74 20 94 1 0 0 6
7 0 0 0 0 0 0 0 0 0 0 0 0 0 0 0 0 0 0 0 83 3 93 0 0 1 81 1 61 5 86 9 0 0 0 0 95
 70 62 0 4 T9 0 0 1 20 1 96 96 13 63 3 0 9 0 0 0 66 65 0 29 64 4 0 66 0 0 0 0 0
 19 65 1 0 9 0 0 63 0 V0 18 66 2 0 0 0 0 64 ?63 74 20 96 1 0 0 61 0 0 0 0 0 0 0
 0 0 0 0 0 0 0 0 0 0 0 0 83 3 95 .6 .4 .4 81 1 55 5 86 8 0 0 0 0 97 70 56 0 4 T8
 0 0 1 20 1 98 98 13 57 3 0 8 0 0 0 60 59 0 29 58 4 0 60 0 0 0 0 0 19 59 1 0 8 0
 0 57 0 V0 18 60 2 0 0 0 0 58 ?57 74 20 98 1 0 0 55 0 0 0 0 0 0 0 0 0 0 0 0 0 0
 0 0 0 0 0 83 3 97 0 0 1 81 1 48 11 99 7 100 0 0 0 101 70 49 0 4 T7 0 0 2 20 1 1
02 102 13 50 3 0 7 0 0 103 0 53 0 30 255 51 9 0 7 104 0 105 +0 0 0 -1 0 0 29 52
 7 0 54 106 0 -.2413 0 0 19 53 1 0 7 0 0 50 0 V0 18 54 5 0 107 0 108 52 ?7 17 25
5 107 0 0 0 0 54 109 103 0 0 +18 108 2 0 109 54 0 106 ?7 17 109 0 0 0 0 108 107
 103 0 0 -29 106 4 0 108 0 52 0 0 0 16 255 103 6 0 ?107 0 0 104 0 0 50 133 255 1
04 8 0 103 0 51 0 +51 0 0 0 -.2413 0 0 0 .2413 141 255 105 104 105 105 51 74 20
 102 2 0 0 100 48 0 0 0 0 0 0 0 0 0 0 0 0 0 0 0 0 0 0 81 1 100 10 86 7 0 48 0 0
 110 83 3 110 .3019607843137255 .427450980392157 .701960784313725 80 1 99 111 11
2 8038 0 0 0 0 0 0 0 0 0 TTTTTTTTTTTTTFTF10 98 255 5 101 76 105 110 101 49 79 14
 112 SDL/TYSA_UNAME81 1 41 11 99 6 113 0 0 0 114 70 42 0 4 T6 0 0 2 20 1 115 115
 13 43 3 0 6 0 0 116 0 46 0 30 44 9 0 6 117 0 118 +-.2413 0 0 0 -1 0 29 45 7 0 4
7 119 0 -.2413 -.2032 0 19 46 1 0 6 0 0 43 0 V0 18 47 5 0 120 0 121 45 ?6 17 120
 0 0 0 0 47 122 116 0 0 +18 121 2 0 122 47 0 119 ?6 17 122 0 0 0 0 121 120 116 0
 0 -29 119 4 0 121 0 45 -.2413 0 0 16 116 6 0 ?120 0 0 117 0 0 43 133 117 8 0 11
6 0 44 0 +44 -.2413 0 0 -.2413 -.2032 0 0 .2032 141 118 117 118 118 44 74 20 115
 2 0 0 113 41 0 0 0 0 0 0 0 0 0 0 0 0 0 0 0 0 0 0 81 1 113 10 86 6 0 41 0 0 123
 83 3 123 .3019607843137255 .427450980392157 .701960784313725 98 5 114 76 105 11
0 101 50 81 1 34 11 99 5 124 0 0 0 125 70 35 0 4 T5 0 0 2 20 1 126 126 13 36 3 0
 5 0 0 127 0 39 0 30 37 9 0 5 128 0 129 +-.2413 -.2032 0 1 0 0 29 38 7 0 40 130
 0 0 -.2032 0 19 39 1 0 5 0 0 36 0 V0 18 40 5 0 131 0 132 38 ?5 17 131 0 0 0 0 4
0 133 127 0 0 +18 132 2 0 133 40 0 130 ?5 17 133 0 0 0 0 132 131 127 0 0 -29 130
 4 0 132 0 38 -.2413 -.2032 0 16 127 6 0 ?131 0 0 128 0 0 36 133 128 8 0 127 0 3
7 0 +37 -.2413 -.2032 0 0 -.2032 0 0 .2413 141 129 128 129 129 37 74 20 126 2 0
 0 124 34 0 0 0 0 0 0 0 0 0 0 0 0 0 0 0 0 0 0 81 1 124 10 86 5 0 34 0 0 134 83 3
 134 .3019607843137255 .427450980392157 .701960784313725 98 5 125 76 105 110 101
 51 81 1 27 11 99 4 135 0 0 0 136 70 28 0 4 T4 0 0 2 20 1 137 137 13 29 3 0 4 0
 0 138 0 32 0 30 30 9 0 4 139 0 140 +0 -.2032 0 0 1 0 29 31 7 0 33 141 0 0 0 0 1
9 32 1 0 4 0 0 29 0 V0 18 33 5 0 142 0 143 31 ?4 17 142 0 0 0 0 33 144 138 0 0 +
18 143 2 0 144 33 0 141 ?4 17 144 0 0 0 0 143 142 138 0 0 -29 141 4 0 143 0 31 0
 -.2032 0 16 138 6 0 ?142 0 0 139 0 0 29 133 139 8 0 138 0 30 0 +30 0 -.2032 0 0
 0 0 0 .2032 141 140 139 140 140 30 74 20 137 2 0 0 135 27 0 0 0 0 0 0 0 0 0 0 0
 0 0 0 0 0 0 0 81 1 135 10 86 4 0 27 0 0 145 83 3 145 .3019607843137255 .4274509
80392157 .701960784313725 98 5 136 76 105 110 101 52 81 1 22 7 99 3 146 0 0 0 14
7 70 23 0 4 T3 0 0 2 20 1 148 148 13 24 3 0 3 0 0 149 0 26 0 31 255 25 5 0 3 150
 0 151 +0 0 0 0 0 1 1 0 0 .101600000000569 19 26 1 0 3 0 0 24 0 V0 133 150 4 0 1
49 0 25 0 +25 .101600000000569 0 0 .101600000000569 0 0 0 6.28318530717959 141 1
51 150 151 151 25 16 149 2 0 ?152 0 0 150 0 0 24 17 152 0 0 0 0 0 153 149 0 0 +1
7 153 0 0 0 0 0 152 149 0 0 -74 20 148 2 0 0 146 22 0 0 0 0 0 0 0 0 0 0 0 0 0 0
 0 0 0 0 81 1 146 6 86 3 0 22 0 0 154 83 3 154 .3019607843137255 .42745098039215
7 .701960784313725 98 4 147 65 114 99 49 81 1 13 284 86 2 155 0 0 0 156 70 14 0
 4 T2 0 0 5 20 1 157 157 13 15 30 0 2 0 158 0 0 159 0 51 255 16 29 0 158 160 0 0
 -0 0 .508 0 0 -1 .101600000000569 -1 0 0 30 17 71 0 20 161 0 0 --.1016000000005
69 0 .508 0 0 -1 29 18 62 0 21 162 0 0 -.101600000000569 .1143 19 19 1 0 2 159 0
 163 0 V0 16 20 69 164 ?165 0 166 17 0 0 2 18 21 60 0 167 0 168 18 ?2 17 167 0 1
69 170 165 21 171 172 0 173 -18 168 56 0 170 21 174 162 ?2 17 170 0 169 175 167
 168 173 166 0 176 +18 174 54 0 175 168 177 178 ?2 29 162 59 0 168 178 18 0 -.10
1600000000569 0 29 178 55 0 174 179 162 -.101600000000569 0 0 29 179 216 0 177 1
80 178 -.101600000000569 0 .1143 18 177 153 0 165 174 181 179 ?2 29 180 220 0 18
2 183 179 0 -.2032 0 18 182 150 0 184 185 186 180 ?2 29 183 222 0 186 187 180 -.
2413 0 0 18 186 152 0 188 182 189 183 ?2 29 187 223 0 189 190 183 -.2413 -.2032
 0 18 189 156 0 191 186 0 187 ?2 29 190 224 0 181 192 187 0 -.2032 .1143 18 181
 149 0 193 177 194 190 ?2 29 192 226 0 194 195 190 -.2413 0 .1143 18 194 147 0 1
96 181 185 192 ?2 29 195 227 0 185 0 192 -.2413 -.2032 .1143 18 185 151 0 197 19
4 182 195 ?2 17 197 0 198 199 200 185 191 201 0 202 -15 255 198 177 0 200 203 0
 17 199 0 198 188 197 194 204 205 0 0 +17 200 0 198 197 188 189 206 207 0 0 -17
 191 0 208 209 202 189 197 201 0 210 +16 201 133 211 ?191 212 213 214 0 0 2 17 2
02 0 208 191 215 185 216 213 0 204 +15 208 189 0 209 217 0 17 215 0 208 202 209
 181 218 212 0 216 -17 216 0 219 220 204 181 202 213 0 0 -16 213 131 221 ?202 20
1 222 223 0 0 2 17 204 0 219 216 224 185 199 205 0 0 -15 219 193 0 220 225 0 17
 224 0 219 204 171 194 226 227 0 199 -16 205 115 228 ?199 227 229 230 0 0 2 81 1
 228 296 89 205 231 0 232 233 234 16 227 98 232 ?226 222 205 235 0 0 2 16 229 11
1 233 ?210 205 236 237 0 0 2 30 230 215 0 205 0 235 0 +-.2413 -.2032 .1143 0 1 0
 30 235 214 0 227 230 238 0 +-.2413 0 .1143 1 0 0 30 238 213 0 222 235 223 0 +0
 0 .1143 0 -1 0 16 222 126 239 ?193 213 227 238 0 0 2 30 223 212 0 213 238 240 0
 +0 -.2032 .1143 -1 0 0 30 240 211 0 207 223 241 0 +-.2413 -.2032 0 0 1 0 16 207
 113 242 ?206 243 0 240 0 0 2 30 241 210 0 243 240 244 0 +-.2413 0 0 1 0 0 16 24
3 104 245 ?246 236 207 241 0 0 2 30 244 209 0 236 241 237 0 +0 0 0 0 -1 0 16 236
 142 247 ?184 229 243 244 0 0 2 30 237 208 0 229 244 248 0 +0 -.2032 0 -1 0 0 30
 248 207 0 212 237 249 0 +0 -.2032 .1143 0 0 -1 16 212 102 250 ?218 251 201 248
 0 0 2 30 249 205 0 251 248 214 0 +-.2413 0 .1143 0 0 -1 16 251 117 252 ?188 253
 212 249 0 0 2 30 214 204 0 201 249 254 0 +-.2413 -.2032 .1143 0 0 -1 31 254 4 0
 255 214 256 0 +0 0 .508 0 0 1 1 0 0 .101600000000569 16 255 2 257 ?258 172 253
 254 0 0 2 31 256 24 0 253 254 259 0 +0 0 0 0 0 1 1 0 0 .101600000000569 16 253
 21 260 ?175 255 251 256 0 0 2 31 259 66 0 172 256 161 0 +0 0 .1143 0 0 -1 -1 0
 0 .101600000000569 16 172 64 261 ?171 166 255 259 0 0 2 30 161 68 0 166 259 17
 0 +0 -.101600000000569 .508 0 0 -1 16 166 67 262 ?170 20 172 161 0 0 2 81 1 262
 286 89 166 263 0 164 261 264 80 1 89 0 265 8001 0 0 0 0 3 5 0 0 0 FFFFTFTFFFFFF
FFF2 81 1 263 257 266 166 0 262 267 268 269 81 1 164 285 89 20 270 0 271 262 272
 81 1 261 287 89 172 267 0 262 257 273 83 3 264 .611764705882353 .65882352941176
5 .670588235294118 81 1 267 256 266 172 0 261 274 263 275 81 1 257 288 89 255 27
6 0 261 260 277 83 3 273 .611764705882353 .658823529411765 .670588235294118 81 1
 276 45 266 255 0 257 0 278 279 81 1 260 289 89 253 280 0 257 252 281 83 3 277 .
611764705882353 .658823529411765 .670588235294118 81 1 280 244 266 253 0 260 278
 282 283 81 1 252 290 89 251 284 0 260 250 285 83 3 281 .611764705882353 .658823
529411765 .670588235294118 81 1 284 250 266 251 0 252 286 287 288 81 1 250 291 8
9 212 287 0 252 211 289 83 3 285 .611764705882353 .658823529411765 .670588235294
118 81 1 287 251 266 212 0 250 284 231 290 81 1 211 292 89 201 274 0 250 221 291
 83 3 289 .611764705882353 .658823529411765 .670588235294118 81 1 274 255 266 20
1 0 211 292 267 293 81 1 221 293 89 213 286 0 211 239 294 83 3 291 .611764705882
353 .658823529411765 .670588235294118 81 1 286 249 266 213 0 221 295 284 296 81
 1 239 294 89 222 268 0 221 232 297 83 3 294 .611764705882353 .658823529411765 .
670588235294118 81 1 268 258 266 222 0 239 263 298 299 81 1 232 295 89 227 282 0
 239 228 300 83 3 297 .611764705882353 .658823529411765 .670588235294118 81 1 28
2 245 266 227 0 232 280 301 302 83 3 300 .611764705882353 .658823529411765 .6705
88235294118 80 1 266 303 304 9000 1 1 1 1 1 1 1 1 0 FFFFTFTFFFFFFFFF3 81 1 301 2
46 266 229 0 233 282 305 306 84 255 32 302 67342ede301f9298c206d5fccc6b420381 1
 233 297 89 229 301 0 228 247 307 81 1 305 247 266 207 0 242 301 295 308 84 32 3
06 d9fd337eadc64c5819e76285620a6d0481 1 242 300 89 207 305 0 245 0 309 81 1 295
 248 266 236 0 247 305 286 310 84 32 308 96b9c3c281ef2bbd24a68b9686d402ec81 1 24
7 298 89 236 295 0 233 245 311 84 32 310 863b5183994237d1b79f0594fce3c39781 1 24
5 299 89 243 292 0 247 242 312 83 3 311 .611764705882353 .658823529411765 .67058
8235294118 81 1 292 254 266 243 0 245 270 274 313 83 3 312 .611764705882353 .658
823529411765 .670588235294118 81 1 270 253 266 20 0 164 231 292 314 84 32 313 a3
8d4b1e47e0e5fd1a6f3efb0cad36b281 1 231 252 266 205 0 228 287 270 315 84 32 314 2
e9bb19732527b5586356f750c6dac0384 32 315 9e352777f2170ea3d68f73a8c8e1bc5583 3 30
9 .611764705882353 .658823529411765 .670588235294118 83 3 307 .611764705882353 .
658823529411765 .670588235294118 79 15 304 UGS/ObjectState81 1 298 259 266 158 0
 316 268 317 318 84 32 299 dccfdaee602351201a76c44abd7de50e14 255 158 26 319 ?32
0 0 169 15 16 -0 0 320 0 163 81 1 316 268 321 158 298 319 0 322 323 81 1 317 260
 266 324 0 325 298 326 327 84 32 318 c338e7dc48947b4eca4f783560eb6d0d14 324 17 3
28 ?329 320 330 15 160 -0 0 329 320 163 81 1 325 272 321 324 317 328 322 331 332
 81 1 326 261 266 203 0 333 317 334 335 84 32 327 b495769bac0f2536fb815afd7e6e0e
3e14 203 174 336 ?217 337 198 15 338 +0 0 217 337 163 81 1 333 278 321 203 326 3
36 339 340 341 81 1 334 262 266 337 0 339 326 342 343 84 32 335 1b202a2ed001885f
4dc2f02b329a667514 337 182 344 ?203 329 345 15 346 +0 0 203 329 163 81 1 339 276
 321 337 334 344 331 333 347 81 1 342 263 266 217 0 340 334 348 349 84 32 343 66
a17957e648df28de68b213818c0d8614 217 186 350 ?225 203 208 15 351 +0 0 225 203 16
3 81 1 340 280 321 217 342 350 333 352 353 81 1 348 264 266 329 0 331 342 354 35
5 84 32 349 f4e72a0e6b4115311be8a67cf07119a014 329 178 356 ?337 324 357 15 358 +
0 0 337 324 163 81 1 331 274 321 329 348 356 325 339 359 81 1 354 265 266 225 0
 352 348 0 360 84 32 355 0dcd2575273073792ae36262fba3e49e14 225 190 271 ?0 217 2
19 15 361 -0 0 0 217 163 81 1 352 282 321 225 354 271 340 0 362 84 32 360 9089a3
2f33aeafd442789e41eaa0e83180 1 321 363 364 8015 0 0 0 0 3 5 0 0 0 FFFFTFFFFFFFFF
FF2 81 1 271 283 89 225 352 0 350 164 365 83 1 362 0 81 1 350 281 89 217 340 0 3
36 271 366 83 3 365 .611764705882353 .658823529411765 .670588235294118 81 1 336
 279 89 203 333 0 344 350 367 83 3 366 .611764705882353 .658823529411765 .670588
235294118 81 1 344 277 89 337 339 0 356 336 368 83 3 367 .611764705882353 .65882
3529411765 .670588235294118 81 1 356 275 89 329 331 0 328 344 369 83 3 368 .6117
64705882353 .658823529411765 .670588235294118 81 1 328 273 89 324 325 0 370 356
 371 83 3 369 .611764705882353 .658823529411765 .670588235294118 81 1 370 271 89
 320 322 0 319 328 372 83 3 371 .611764705882353 .658823529411765 .6705882352941
18 14 320 6 370 ?324 158 373 15 374 +0 0 324 158 163 81 1 322 270 321 320 278 37
0 316 325 375 81 1 319 269 89 158 316 0 0 370 376 83 3 372 .611764705882353 .658
823529411765 .670588235294118 83 3 376 .611764705882353 .658823529411765 .670588
235294118 81 1 278 48 266 320 0 322 276 280 377 83 1 375 0 84 32 377 dd44b31e2e2
0d3287c6f23fb1441c9bb15 373 5 0 258 320 0 50 255 374 7 0 320 338 160 0 +0 0 .508
 0 0 1 1 0 0 13 163 3 0 0 0 0 0 0 19 158 50 338 198 0 203 358 374 0 +-.2413 -.20
32 .1143 -1 0 0 0 0 1 50 160 23 0 324 374 16 0 +0 0 0 0 0 1 1 0 0 50 358 199 0 3
29 346 338 0 +-.2413 0 .1143 0 1 0 0 0 1 50 346 200 0 337 351 358 0 +0 0 .1143 1
 0 0 0 0 -1 50 351 201 0 217 361 346 0 +0 -.2032 .1143 0 -1 0 0 0 -1 50 361 203
 0 225 0 351 0 +0 0 .1143 0 0 -1 -1 0 0 17 258 0 373 258 258 0 378 255 0 0 +17 3
78 0 379 378 378 0 258 255 0 0 -15 379 25 0 378 158 0 79 21 364 SDL/TYSA_TRANSLU
CENCY83 1 359 0 15 357 161 0 380 329 0 17 380 0 357 381 226 174 165 20 0 246 -17
 381 0 357 196 380 186 246 243 0 206 -17 226 0 357 380 196 177 224 227 0 0 +17 1
65 0 169 167 175 177 380 20 0 171 +17 246 0 330 176 206 174 381 243 0 0 +15 330
 20 0 176 324 0 17 176 0 330 184 246 168 175 253 0 382 -17 206 0 330 246 210 186
 200 207 0 0 +17 210 0 330 206 184 189 209 229 0 200 +17 184 0 330 210 176 182 3
82 236 0 218 +17 209 0 208 215 191 182 210 229 0 0 -17 382 0 345 173 218 168 184
 236 0 0 -17 218 0 345 382 193 182 215 212 0 209 +15 345 165 0 173 337 0 17 193
 0 345 218 173 181 220 222 0 215 +17 173 0 345 193 382 21 170 166 0 220 -17 220
 0 219 171 216 21 193 222 0 0 -17 171 0 219 224 220 177 167 172 0 226 +17 175 0
 169 165 170 174 176 253 0 380 +15 169 61 0 175 158 379 17 196 0 357 226 381 194
 188 251 0 224 -17 188 0 198 200 199 186 196 251 0 381 +83 1 353 0 83 1 347 0 83
 1 341 0 83 1 332 0 83 1 323 0 84 32 296 4f25274c94a9de9acab268cf0c2851c984 32 2
93 ce0190136fe4be94f04deef1e7892d6184 32 290 2b2e872c80ada274e143aab6e3b07a2e84
 32 288 8f0770d4d4d57e392340e4773d48182984 32 283 cee32bd4c2f277bd4a0d4b669a30b7
b684 32 279 f78b3273d01186e3776ec55f11894cc584 32 275 5260529bff24fbdde216f0287c
fe71b583 3 272 .611764705882353 .658823529411765 .670588235294118 84 32 269 dff8
73dd74dfed80b7a00f73add5830d79 15 265 SDL/TYSA_COLOUR83 3 234 .611764705882353 .
658823529411765 .670588235294118 19 159 31 0 2 0 19 15 0 S0 74 20 157 5 0 0 354
 155 352 242 13 0 0 0 0 0 0 0 0 0 0 0 0 0 0 0 81 2 155 243 383 2 0 13 0 0 384 38
5 80 2 383 386 387 8004 0 0 0 0 3 5 0 0 0 FFTFFFFFFFFFFFFF2 3 83 1 384 7830.6450
4251646 84 8 385 Kg/Cu M 79 16 387 SDL/TYSA_DENSITY83 3 156 .611764705882353 .65
8823529411765 .670588235294118 1 0 
