**ABCDEFGHIJKLMNOPQRSTUVWXYZabcdefghijklmnopqrstuvwxyz**************************
**PARASOLID !"#$%&'()*+,-./:;<=>?@[\]^_`{|}~0123456789**************************
**PART1;
MC=^_;
MC_MODEL=genuineintel family 6 model 5 stepping 7, intel(r) xeon(r) silver 4214 cpu @ 2.20ghz;
MC_ID=^_;
OS=windows nt (x64);
OS_RELEASE=6.3 windows 10 education (build 17763) ;
FRU=mdc_ugii_v7.0_djl_can_vrh;
APPL=unigraphics;
SITE=unknown;
USER=^_;
FORMAT=text;
GUISE=transmit;
KEY=model2_1;
FILE=^_;
DATE=5-apr-2026;
**PART2;
SCH=SCH_3501171_35102;
USFLD_SIZE=0;
**PART3;
**END_OF_HEADER*****************************************************************
T51 : TRANSMIT FILE created by modeller version 350117123 SCH_3501171_35102_1300
6231 0 176 6 14 PART_XMT_BLOCK9 Part list9 n_entries0 0 1 d16 index_map_offset0
 0 1 d9 index_map82 0 20 schema_embedding_map82 0 16 mesh_offset_data206 0 7 ent
ries1005 1 T11 1 11 0 0 0 0 2 3 4 5 6 7 8 9 10 11 12 12 36 CCCI7 lattice222 0 CC
CI4 mesh1006 0 I8 polyline1008 0 CCCCCCCDI5 owner1040 0 CCCI16 boundary_lattice2
22 0 CCCI13 boundary_mesh1006 0 I17 boundary_polyline1008 0 CCCA16 index_map_off
set0 0 1 dA9 index_map82 0 A17 node_id_index_map82 0 A20 schema_embedding_map82
 0 A5 child12 0 A14 lowest_node_id0 0 1 dA16 mesh_offset_data206 0 Z2 314 13 14
 0 0 0 0 0 0 0 1e3 1e-8 0 3 0 1 0 1 1 15 0 16 17 18 0 0 19 20 21 0 0 0 0 0 0 0 1
2 3 7 22 23 0 0 0 0 0 0 0 1e3 1e-8 0 4 2 1 0 2 1 24 0 0 25 0 0 0 26 0 0 0 0 0 0
 0 0 0 12 4 11 27 28 0 0 0 0 0 0 0 1e3 1e-8 0 5 3 1 0 2 1 29 0 0 30 31 0 0 32 0
 33 0 0 0 0 0 0 0 12 5 11 34 35 0 0 0 0 0 0 0 1e3 1e-8 0 6 4 1 0 2 1 36 0 0 37 3
8 0 0 39 0 40 0 0 0 0 0 0 0 12 6 11 41 42 0 0 0 0 0 0 0 1e3 1e-8 0 7 5 1 0 2 1 4
3 0 0 44 45 0 0 46 0 47 0 0 0 0 0 0 0 12 7 11 48 49 0 0 0 0 0 0 0 1e3 1e-8 0 8 6
 1 0 2 1 50 0 0 51 52 0 0 53 0 54 0 0 0 0 0 0 0 12 8 5 55 56 0 0 0 0 0 0 0 1e3 1
e-8 0 9 7 1 0 2 1 57 0 0 0 58 0 0 59 0 60 0 0 0 0 0 0 0 12 9 5 61 62 0 0 0 0 0 0
 0 1e3 1e-8 0 10 8 1 0 2 1 63 0 0 0 64 0 0 65 0 66 0 0 0 0 0 0 0 12 10 5 67 68 0
 0 0 0 0 0 0 1e3 1e-8 0 11 9 1 0 2 1 69 0 0 0 70 0 0 71 0 72 0 0 0 0 0 0 0 12 11
 5 73 74 0 0 0 0 0 0 0 1e3 1e-8 0 12 10 1 0 2 1 75 0 0 0 76 0 0 77 0 78 0 0 0 0
 0 0 0 12 12 5 79 80 0 0 0 0 0 0 0 1e3 1e-8 0 81 11 1 0 2 1 82 0 0 0 83 0 0 84 0
 85 0 0 0 0 0 0 0 81 255 1 79 5 86 12 0 0 0 0 87 70 11 CI9 list_type0 0 1 uI10 n
otransmit0 0 1 lCCCDCCDI12 finger_index0 0 1 dI12 finger_block1012 0 CZ80 0 4 T1
2 0 0 1 20 1 88 88 13 255 82 3 0 12 0 0 0 85 84 0 29 255 83 4 0 85 0 0 0 0 0 19
 9 CCCCCCI5 frame230 0 CA5 owner12 0 Z84 1 0 12 0 0 82 0 V0 18 255 85 2 0 0 0 0
 83 ?82 74 4 CI16 index_map_offset0 0 1 dCCZ20 88 1 0 0 79 0 0 0 0 0 0 0 0 0 0 0
 0 0 0 0 0 0 0 0 80 7 CCCCCDI12 legal_owners0 16 1 lCZ1 86 89 90 8040 0 0 0 0 3
 5 0 0 0 TTTFFFFFFFFFFFFF2 83 255 3 87 .6 .4 .4 79 255 17 90 SDL/TYSA_COLOUR_281
 1 73 5 86 11 0 0 0 0 91 70 74 0 4 T11 0 0 1 20 1 92 92 13 75 3 0 11 0 0 0 78 77
 0 29 76 4 0 78 0 0 0 0 0 19 77 1 0 11 0 0 75 0 V0 18 78 2 0 0 0 0 76 ?75 74 20
 92 1 0 0 73 0 0 0 0 0 0 0 0 0 0 0 0 0 0 0 0 0 0 0 83 3 91 .6 .4 .4 81 1 67 5 86
 10 0 0 0 0 93 70 68 0 4 T10 0 0 1 20 1 94 94 13 69 3 0 10 0 0 0 72 71 0 29 70 4
 0 72 0 0 0 0 0 19 71 1 0 10 0 0 69 0 V0 18 72 2 0 0 0 0 70 ?69 74 20 94 1 0 0 6
7 0 0 0 0 0 0 0 0 0 0 0 0 0 0 0 0 0 0 0 83 3 93 0 0 1 81 1 61 5 86 9 0 0 0 0 95
 70 62 0 4 T9 0 0 1 20 1 96 96 13 63 3 0 9 0 0 0 66 65 0 29 64 4 0 66 0 0 0 0 0
 19 65 1 0 9 0 0 63 0 V0 18 66 2 0 0 0 0 64 ?63 74 20 96 1 0 0 61 0 0 0 0 0 0 0
 0 0 0 0 0 0 0 0 0 0 0 0 83 3 95 .6 .4 .4 81 1 55 5 86 8 0 0 0 0 97 70 56 0 4 T8
 0 0 1 20 1 98 98 13 57 3 0 8 0 0 0 60 59 0 29 58 4 0 60 0 0 0 0 0 19 59 1 0 8 0
 0 57 0 V0 18 60 2 0 0 0 0 58 ?57 74 20 98 1 0 0 55 0 0 0 0 0 0 0 0 0 0 0 0 0 0
 0 0 0 0 0 83 3 97 0 0 1 81 1 48 11 99 7 100 0 0 0 101 70 49 0 4 T7 0 0 2 20 1 1
02 102 13 50 3 0 7 0 0 103 0 53 0 30 255 51 9 0 7 104 0 105 +0 0 0 1 0 0 29 52 7
 0 54 106 0 .2032 0 0 19 53 1 0 7 0 0 50 0 V0 18 54 5 0 107 0 108 52 ?7 17 255 1
07 0 0 0 0 54 109 103 0 0 +18 108 2 0 109 54 0 106 ?7 17 109 0 0 0 0 108 107 103
 0 0 -29 106 4 0 108 0 52 0 0 0 16 255 103 6 0 ?107 0 0 104 0 0 50 133 255 104 8
 0 103 0 51 0 +51 0 0 0 .2032 0 0 0 .2032 141 255 105 104 105 105 51 74 20 102 2
 0 0 100 48 0 0 0 0 0 0 0 0 0 0 0 0 0 0 0 0 0 0 81 1 100 10 86 7 0 48 0 0 110 83
 3 110 .3019607843137255 .427450980392157 .701960784313725 80 1 99 111 112 8038
 0 0 0 0 0 0 0 0 0 TTTTTTTTTTTTTFTF10 98 255 5 101 76 105 110 101 49 79 14 112 S
DL/TYSA_UNAME81 1 41 11 99 6 113 0 0 0 114 70 42 0 4 T6 0 0 2 20 1 115 115 13 43
 3 0 6 0 0 116 0 46 0 30 44 9 0 6 117 0 118 +.2032 0 0 0 1 0 29 45 7 0 47 119 0
 .2032 .254 0 19 46 1 0 6 0 0 43 0 V0 18 47 5 0 120 0 121 45 ?6 17 120 0 0 0 0 4
7 122 116 0 0 +18 121 2 0 122 47 0 119 ?6 17 122 0 0 0 0 121 120 116 0 0 -29 119
 4 0 121 0 45 .2032 0 0 16 116 6 0 ?120 0 0 117 0 0 43 133 117 8 0 116 0 44 0 +4
4 .2032 0 0 .2032 .254 0 0 .254 141 118 117 118 118 44 74 20 115 2 0 0 113 41 0
 0 0 0 0 0 0 0 0 0 0 0 0 0 0 0 0 0 81 1 113 10 86 6 0 41 0 0 123 83 3 123 .30196
07843137255 .427450980392157 .701960784313725 98 5 114 76 105 110 101 50 81 1 34
 11 99 5 124 0 0 0 125 70 35 0 4 T5 0 0 2 20 1 126 126 13 36 3 0 5 0 0 127 0 39
 0 30 37 9 0 5 128 0 129 +.2032 .254 0 -1 0 0 29 38 7 0 40 130 0 0 .254 0 19 39
 1 0 5 0 0 36 0 V0 18 40 5 0 131 0 132 38 ?5 17 131 0 0 0 0 40 133 127 0 0 +18 1
32 2 0 133 40 0 130 ?5 17 133 0 0 0 0 132 131 127 0 0 -29 130 4 0 132 0 38 .2032
 .254 0 16 127 6 0 ?131 0 0 128 0 0 36 133 128 8 0 127 0 37 0 +37 .2032 .254 0 0
 .254 0 0 .2032 141 129 128 129 129 37 74 20 126 2 0 0 124 34 0 0 0 0 0 0 0 0 0
 0 0 0 0 0 0 0 0 0 81 1 124 10 86 5 0 34 0 0 134 83 3 134 .3019607843137255 .427
450980392157 .701960784313725 98 5 125 76 105 110 101 51 81 1 27 11 99 4 135 0 0
 0 136 70 28 0 4 T4 0 0 2 20 1 137 137 13 29 3 0 4 0 0 138 0 32 0 30 30 9 0 4 13
9 0 140 +0 .254 0 0 -1 0 29 31 7 0 33 141 0 0 0 0 19 32 1 0 4 0 0 29 0 V0 18 33
 5 0 142 0 143 31 ?4 17 142 0 0 0 0 33 144 138 0 0 +18 143 2 0 144 33 0 141 ?4 1
7 144 0 0 0 0 143 142 138 0 0 -29 141 4 0 143 0 31 0 .254 0 16 138 6 0 ?142 0 0
 139 0 0 29 133 139 8 0 138 0 30 0 +30 0 .254 0 0 0 0 0 .254 141 140 139 140 140
 30 74 20 137 2 0 0 135 27 0 0 0 0 0 0 0 0 0 0 0 0 0 0 0 0 0 0 81 1 135 10 86 4
 0 27 0 0 145 83 3 145 .3019607843137255 .427450980392157 .701960784313725 98 5
 136 76 105 110 101 52 81 1 22 7 99 3 146 0 0 0 147 70 23 0 4 T3 0 0 2 20 1 148
 148 13 24 3 0 3 0 0 149 0 26 0 31 255 25 5 0 3 150 0 151 +0 0 0 0 0 1 1 0 0 .10
16 19 26 1 0 3 0 0 24 0 V0 133 150 4 0 149 0 25 0 +25 .1016 0 0 .1016 0 0 0 6.28
318530717959 141 151 150 151 151 25 16 149 2 0 ?152 0 0 150 0 0 24 17 152 0 0 0
 0 0 153 149 0 0 +17 153 0 0 0 0 0 152 149 0 0 -74 20 148 2 0 0 146 22 0 0 0 0 0
 0 0 0 0 0 0 0 0 0 0 0 0 0 81 1 146 6 86 3 0 22 0 0 154 83 3 154 .30196078431372
55 .427450980392157 .701960784313725 98 4 147 65 114 99 49 81 1 13 298 86 2 155
 0 0 0 156 70 14 0 4 T2 0 0 5 20 1 157 157 13 15 91 0 2 0 158 0 0 159 0 50 255 1
6 86 0 158 160 0 0 +0 .254 .127 1 0 0 0 0 -1 30 17 90 0 161 162 0 0 +0 .254 .127
 0 0 -1 29 18 160 0 21 163 0 .1016 0 .127 19 19 1 0 2 159 0 164 0 V0 16 20 72 16
5 ?166 0 167 162 0 0 2 18 21 157 0 168 0 169 18 ?2 17 168 0 170 171 172 21 173 1
74 0 175 +18 169 15 0 176 21 177 178 ?2 17 176 0 179 180 181 169 182 183 0 184 +
18 177 10 0 181 169 185 186 ?2 29 178 17 0 169 186 187 .2032 .254 .127 29 186 12
 0 177 188 178 .2032 0 .127 29 187 70 0 189 178 190 0 .254 0 18 189 60 0 191 192
 193 187 ?2 29 190 68 0 192 187 163 .2032 0 0 18 192 56 0 194 195 189 190 ?2 29
 163 67 0 195 190 18 .2032 .254 0 18 195 54 0 196 185 192 163 ?2 17 196 0 197 18
4 166 195 198 199 0 200 +18 185 2 0 180 177 195 188 ?2 17 180 0 179 201 176 185
 202 203 0 204 +29 188 4 0 185 205 186 0 .254 .127 29 205 250 0 193 206 188 0 .1
016 .127 18 193 217 0 171 189 207 205 ?2 29 206 251 0 207 208 205 0 .1016 0 18 2
07 218 0 209 193 210 206 ?2 29 208 252 0 210 0 206 .1016 0 0 18 210 215 0 172 20
7 0 208 ?2 17 172 0 170 168 209 210 211 212 0 173 -15 255 170 227 0 171 213 0 17
 209 0 170 172 171 207 214 215 0 211 +17 211 0 216 217 218 207 172 212 0 219 +16
 212 208 220 ?211 221 0 222 0 0 2 17 173 0 223 194 224 210 168 174 0 218 -15 223
 167 0 173 225 0 17 194 0 223 226 173 192 218 227 0 166 +17 224 0 223 173 226 21
 181 228 0 0 -16 174 202 229 ?168 215 230 231 0 0 2 17 218 0 216 211 198 210 194
 227 0 0 -15 216 149 0 211 232 0 17 198 0 216 218 233 192 196 199 0 0 -16 227 50
 234 ?194 199 235 236 0 0 2 81 1 234 308 89 227 237 0 238 239 240 16 199 48 238
 ?196 241 227 242 0 0 2 16 235 52 239 ?219 227 215 243 0 0 2 30 236 65 0 227 243
 242 0 +0 0 0 1 0 0 30 243 66 0 235 244 236 0 +0 .254 0 0 -1 0 30 242 64 0 199 2
36 245 0 +.2032 0 0 0 1 0 30 245 63 0 241 242 246 0 +.2032 .254 0 -1 0 0 16 241
 46 247 ?191 248 199 245 0 0 2 30 246 87 0 167 245 162 0 +.2032 .254 .127 0 0 -1
 16 167 71 249 ?200 20 161 246 0 0 2 30 162 88 0 20 246 17 0 +.2032 0 .127 0 0 -
1 81 1 249 300 89 167 250 0 165 251 252 17 200 0 253 191 202 195 184 167 0 233 +
16 161 74 251 ?254 167 203 17 0 0 2 81 1 251 301 89 161 255 0 249 256 257 17 254
 0 258 219 259 189 204 161 0 217 +16 203 20 256 ?180 161 183 244 0 0 2 81 1 256
 302 89 203 260 0 251 261 262 16 183 16 261 ?176 203 228 263 0 0 2 30 244 22 0 2
03 263 243 0 +.2032 .254 .127 -1 0 0 30 263 19 0 183 264 244 0 +.2032 0 .127 0 1
 0 30 264 14 0 228 265 263 0 +0 0 .127 1 0 0 16 228 11 266 ?181 183 248 264 0 0
 2 30 265 9 0 248 267 264 0 +0 .254 .127 0 -1 0 16 248 6 268 ?201 228 241 265 0
 0 2 30 267 243 0 215 231 265 0 +0 .1016 .508 0 0 -1 16 215 197 269 ?209 235 174
 267 0 0 2 30 231 244 0 174 270 267 0 -.1016 0 .508 0 0 -1 31 270 245 0 230 222
 231 0 -0 0 .127 0 0 1 1 0 0 .1016 16 230 205 271 ?175 174 221 270 0 0 2 31 222
 246 0 212 272 270 0 -0 0 0 0 0 1 1 0 0 .1016 31 272 247 0 221 0 222 0 +0 0 .508
 0 0 1 1 0 0 .1016 16 221 212 273 ?274 230 212 272 0 0 2 81 1 273 313 89 221 275
 0 271 220 276 17 274 0 277 274 274 0 278 221 0 0 +15 277 235 0 274 279 0 17 278
 0 280 278 278 0 274 221 0 0 -15 280 226 0 278 213 170 14 255 213 228 281 ?279 2
32 280 15 282 -0 0 279 232 164 81 1 281 295 89 213 283 0 284 285 286 14 279 232
 285 ?0 213 277 15 287 +0 0 0 213 164 14 232 42 284 ?213 288 216 15 289 -0 0 213
 288 164 51 255 282 240 0 213 287 290 0 -0 0 .508 0 0 -1 .1016 -1 0 0 13 164 3 0
 0 0 0 0 0 19 158 14 158 82 291 ?225 0 258 15 16 -0 0 225 0 164 81 1 291 283 89
 158 292 0 0 293 294 14 225 80 293 ?295 158 223 15 160 -0 0 295 158 164 15 258 1
72 0 214 158 0 17 214 0 258 259 219 193 209 215 0 201 -17 259 0 258 254 214 185
 201 248 0 0 -17 219 0 258 214 254 207 217 235 0 0 +17 201 0 179 175 180 193 259
 248 0 0 +15 179 23 0 201 288 0 17 175 0 179 181 201 21 171 230 0 224 +17 181 0
 179 176 175 177 224 228 0 226 +17 171 0 170 209 168 193 175 230 0 214 -17 226 0
 223 224 194 177 166 20 0 182 -17 166 0 197 196 182 192 226 20 0 198 +17 182 0 1
97 166 184 177 176 183 0 0 -15 197 77 0 196 295 0 17 184 0 197 182 196 169 200 1
67 0 202 -17 202 0 253 200 204 169 180 203 0 0 -15 253 75 0 191 296 0 17 204 0 2
53 202 191 185 254 161 0 259 -17 191 0 253 204 200 189 233 241 0 254 +17 233 0 2
16 198 217 195 191 241 0 0 -17 217 0 216 233 211 189 219 235 0 0 -14 296 76 297
 ?288 295 253 15 298 -0 0 288 295 164 81 1 297 289 89 296 299 0 300 301 302 14 2
88 24 301 ?232 296 179 15 290 +0 0 232 296 164 14 295 78 300 ?296 225 197 15 303
 -0 0 296 225 164 50 298 83 0 296 289 303 0 +.2032 .254 .127 0 -1 0 0 0 -1 50 28
9 62 0 232 290 298 0 +0 0 0 0 0 1 1 0 0 50 303 84 0 295 298 160 0 +.2032 0 .127
 -1 0 0 0 0 1 50 160 85 0 225 303 16 0 +0 0 .127 0 1 0 0 0 1 50 290 25 0 288 282
 289 0 +0 0 .127 0 0 1 1 0 0 81 1 300 287 89 295 304 0 293 297 305 80 1 89 0 306
 8001 0 0 0 0 3 5 0 0 0 FFFFTFTFFFFFFFFF2 81 1 304 286 307 295 308 300 309 299 3
10 81 1 293 285 89 225 309 0 291 300 311 83 3 305 .611764705882353 .658823529411
765 .670588235294118 81 1 309 284 307 225 312 293 292 304 313 83 3 311 .61176470
5882353 .658823529411765 .670588235294118 80 1 307 314 315 8015 0 0 0 0 3 5 0 0
 0 FFFFTFFFFFFFFFFF2 81 1 312 276 316 225 0 309 317 318 319 81 1 292 282 307 158
 318 291 0 309 320 83 1 313 0 81 1 318 277 316 158 0 292 312 321 322 83 1 320 0
 80 1 316 323 324 9000 1 1 1 1 1 1 1 1 0 FFFFTFTFFFFFFFFF3 81 1 321 278 316 213
 0 283 318 325 326 84 255 32 322 3e6dc70a779b58958e13abe34b455fb381 1 283 294 30
7 213 321 281 327 328 329 81 1 325 279 316 279 0 328 321 0 330 84 32 326 2fa1e50
d352688caca3f9fd78163e2d981 1 328 296 307 279 325 285 283 0 331 84 32 330 dd44b3
1e2e20d3287c6f23fb1441c9bb81 1 285 297 89 279 328 0 281 165 332 83 1 331 0 81 1
 165 299 89 20 333 0 285 249 334 83 3 332 .611764705882353 .658823529411765 .670
588235294118 81 1 333 120 316 20 0 165 335 255 336 83 3 334 .611764705882353 .65
8823529411765 .670588235294118 81 1 335 118 316 199 0 238 260 333 337 81 1 255 1
21 316 161 0 251 333 338 339 84 32 336 031a104c4c61c0fe48eb288bbd9bc1c081 1 338
 123 316 296 0 299 255 308 340 84 32 339 e79491cba6cd3b7a278ef22f2aeadc8c81 1 29
9 288 307 296 338 297 304 341 342 81 1 308 128 316 295 0 304 338 275 343 84 32 3
40 b43a6f9457117ed3a71da3ee1456b32d81 1 275 265 316 221 0 273 308 237 344 84 32
 343 0c1daa130bf57babe74ff4794c092aa181 1 237 266 316 227 0 234 275 345 346 84 3
2 344 f78b3273d01186e3776ec55f11894cc581 1 345 267 316 248 0 268 237 347 348 84
 32 346 a02a13e602a0ea12aac8a1fe32f46d5081 1 268 305 89 248 345 0 266 247 349 81
 1 347 268 316 228 0 266 345 350 351 84 32 348 7fa894b7199d18c219519ab5638967888
1 1 266 304 89 228 347 0 261 268 352 81 1 350 269 316 235 0 239 347 353 354 84 3
2 351 91848c5ae443952a7228c105bae0bfd181 1 239 309 89 235 350 0 234 269 355 81 1
 353 270 316 212 0 220 350 356 357 84 32 354 9afba83bbc118f5641cfd0b1727f2c8281
 1 220 314 89 212 353 0 273 0 358 81 1 356 271 316 230 0 271 353 359 360 84 32 3
57 0fe476eac9f023df8e569a7a0a01943781 1 271 312 89 230 356 0 229 273 361 81 1 35
9 272 316 174 0 229 356 362 363 84 32 360 41d15f7f33af47543f9f9edaab10e1e181 1 2
29 311 89 174 359 0 269 271 364 81 1 362 273 316 215 0 269 359 365 366 84 32 363
 73d6b6d85513a9bffeb375c07c1231a681 1 269 310 89 215 362 0 239 229 367 81 1 365
 274 316 288 0 341 362 317 368 84 32 366 cb0acbc8234c363786fe93ef3dc4217381 1 34
1 290 307 288 365 301 299 327 369 81 1 317 275 316 232 0 327 365 312 370 84 32 3
68 668a23dbf0eb0164238e6c4229fad8a781 1 327 292 307 232 317 284 341 283 371 84 3
2 370 cc1e9f417d09b2c57f9cf27dc8d4bae681 1 284 293 89 232 327 0 301 281 372 83 1
 371 0 81 1 301 291 89 288 341 0 297 284 373 83 3 372 .611764705882353 .65882352
9411765 .670588235294118 83 3 373 .611764705882353 .658823529411765 .67058823529
4118 83 1 369 0 83 3 367 .611764705882353 .658823529411765 .670588235294118 83 3
 364 .611764705882353 .658823529411765 .670588235294118 83 3 361 .61176470588235
3 .658823529411765 .670588235294118 83 3 358 .611764705882353 .658823529411765 .
670588235294118 83 3 355 .611764705882353 .658823529411765 .670588235294118 81 1
 261 303 89 183 374 0 256 266 375 83 3 352 .611764705882353 .658823529411765 .67
0588235294118 81 1 374 112 316 183 0 261 376 250 377 83 3 375 .611764705882353 .
658823529411765 .670588235294118 81 1 376 111 316 241 0 247 0 374 378 81 1 250 1
16 316 167 0 249 374 260 379 84 32 377 f3a188a5e531d217ac73199cd914f5f681 1 260
 117 316 203 0 256 250 335 380 84 32 379 393229bcc08692aa82a95963db7fb14e84 32 3
80 168eea5d0a9f287bfb757f2316d4984281 1 247 306 89 241 376 0 268 238 381 84 32 3
78 bc0bfb8d12e07385bcc9b2dd6882e39481 1 238 307 89 199 335 0 247 234 382 83 3 38
1 .611764705882353 .658823529411765 .670588235294118 83 3 382 .611764705882353 .
658823529411765 .670588235294118 83 3 349 .611764705882353 .658823529411765 .670
588235294118 83 1 342 0 84 32 337 dd8ad492c41f5f2f41823a510cbb6cfe83 1 329 0 79
 15 324 UGS/ObjectState84 32 319 fbebe3812177dedcbb0f7042d854475779 21 315 SDL/T
YSA_TRANSLUCENCY83 1 310 0 79 15 306 SDL/TYSA_COLOUR83 3 302 .611764705882353 .6
58823529411765 .670588235294118 83 3 294 .611764705882353 .658823529411765 .6705
88235294118 50 287 242 0 279 0 282 0 +0 0 .508 0 0 1 1 0 0 83 3 286 .61176470588
2353 .658823529411765 .670588235294118 83 3 276 .611764705882353 .65882352941176
5 .670588235294118 83 3 262 .611764705882353 .658823529411765 .670588235294118 8
3 3 257 .611764705882353 .658823529411765 .670588235294118 83 3 252 .61176470588
2353 .658823529411765 .670588235294118 83 3 240 .611764705882353 .65882352941176
5 .670588235294118 19 159 92 0 2 0 19 15 0 S0 74 20 157 5 0 0 325 155 328 220 13
 0 0 0 0 0 0 0 0 0 0 0 0 0 0 0 81 2 155 264 383 2 0 13 0 0 384 385 80 2 383 386
 387 8004 0 0 0 0 3 5 0 0 0 FFTFFFFFFFFFFFFF2 3 83 1 384 7830.64504251646 84 8 3
85 Kg/Cu M 79 16 387 SDL/TYSA_DENSITY83 3 156 .611764705882353 .658823529411765
 .670588235294118 1 0 
