**ABCDEFGHIJKLMNOPQRSTUVWXYZabcdefghijklmnopqrstuvwxyz**************************
**PARASOLID !"#$%&'()*+,-./:;<=>?@[\]^_`{|}~0123456789**************************
**PART1;
MC=^_;
MC_MODEL=genuineintel family 6 model 5 stepping 7, intel(r) xeon(r) silver 4214 cpu @ 2.20ghz;
MC_ID=^_;
OS=windows nt (x64);
OS_RELEASE=6.3 windows 10 education (build 17763) ;
FRU=mdc_ugii_v7.0_djl_can_vrh;
APPL=unigraphics;
SITE=unknown;
USER=^_;
FORMAT=text;
GUISE=transmit;
KEY=model1;
FILE=^_;
DATE=2-apr-2026;
**PART2;
SCH=SCH_3501171_35102;
USFLD_SIZE=0;
**PART3;
**END_OF_HEADER*****************************************************************
T51 : TRANSMIT FILE created by modeller version 350117123 SCH_3501171_35102_1300
6231 0 176 6 14 PART_XMT_BLOCK9 Part list9 n_entries0 0 1 d16 index_map_offset0
 0 1 d9 index_map82 0 20 schema_embedding_map82 0 16 mesh_offset_data206 0 7 ent
ries1005 1 T5 1 5 0 0 0 0 2 3 4 5 6 12 36 CCCI7 lattice222 0 CCCI4 mesh1006 0 I8
 polyline1008 0 CCCCCCCDI5 owner1040 0 CCCI16 boundary_lattice222 0 CCCI13 bound
ary_mesh1006 0 I17 boundary_polyline1008 0 CCCA16 index_map_offset0 0 1 dA9 inde
x_map82 0 A17 node_id_index_map82 0 A20 schema_embedding_map82 0 A5 child12 0 A1
4 lowest_node_id0 0 1 dA16 mesh_offset_data206 0 Z2 56 7 8 0 0 0 0 0 0 0 1e3 1e-
8 0 3 0 1 0 1 1 9 0 10 11 0 0 0 12 13 0 0 0 0 0 0 0 0 12 3 7 14 15 0 0 0 0 0 0 0
 1e3 1e-8 0 4 2 1 0 2 1 16 0 0 17 0 0 0 18 0 0 0 0 0 0 0 0 0 12 4 5 19 20 0 0 0
 0 0 0 0 1e3 1e-8 0 5 3 1 0 2 1 21 0 0 0 22 0 0 23 0 24 0 0 0 0 0 0 0 12 5 5 25
 26 0 0 0 0 0 0 0 1e3 1e-8 0 6 4 1 0 2 1 27 0 0 0 28 0 0 29 0 30 0 0 0 0 0 0 0 1
2 6 5 31 32 0 0 0 0 0 0 0 1e3 1e-8 0 33 5 1 0 2 1 34 0 0 0 35 0 0 36 0 37 0 0 0
 0 0 0 0 81 255 1 31 5 38 6 0 0 0 0 39 70 11 CI9 list_type0 0 1 uI10 notransmit0
 0 1 lCCCDCCDI12 finger_index0 0 1 dI12 finger_block1012 0 CZ32 0 4 T6 0 0 1 20
 1 40 40 13 255 34 3 0 6 0 0 0 37 36 0 29 255 35 4 0 37 0 0 0 0 0 19 9 CCCCCCI5
 frame230 0 CA5 owner12 0 Z36 1 0 6 0 0 34 0 V0 18 255 37 2 0 0 0 0 35 ?34 74 4
 CI16 index_map_offset0 0 1 dCCZ20 40 1 0 0 31 0 0 0 0 0 0 0 0 0 0 0 0 0 0 0 0 0
 0 0 80 7 CCCCCDI12 legal_owners0 16 1 lCZ1 38 41 42 8040 0 0 0 0 3 5 0 0 0 TTTF
FFFFFFFFFFFF2 83 255 3 39 .6 .4 .4 79 255 17 42 SDL/TYSA_COLOUR_281 1 25 5 38 5
 0 0 0 0 43 70 26 0 4 T5 0 0 1 20 1 44 44 13 27 3 0 5 0 0 0 30 29 0 29 28 4 0 30
 0 0 0 0 0 19 29 1 0 5 0 0 27 0 V0 18 30 2 0 0 0 0 28 ?27 74 20 44 1 0 0 25 0 0
 0 0 0 0 0 0 0 0 0 0 0 0 0 0 0 0 0 83 3 43 .6 .4 .4 81 1 19 5 38 4 0 0 0 0 45 70
 20 0 4 T4 0 0 1 20 1 46 46 13 21 3 0 4 0 0 0 24 23 0 29 22 4 0 24 0 0 0 0 0 19
 23 1 0 4 0 0 21 0 V0 18 24 2 0 0 0 0 22 ?21 74 20 46 1 0 0 19 0 0 0 0 0 0 0 0 0
 0 0 0 0 0 0 0 0 0 0 83 3 45 0 0 1 81 1 14 7 47 3 48 0 0 0 49 70 15 0 4 T3 0 0 2
 20 1 50 50 13 16 3 0 3 0 0 51 0 18 0 31 255 17 5 0 3 52 0 53 +0 0 0 0 0 1 1 0 0
 .0635000000004346 19 18 1 0 3 0 0 16 0 V0 133 255 52 4 0 51 0 17 0 +17 .0635000
000004346 0 0 .0635000000004346 0 0 0 6.28318530717959 141 255 53 52 53 53 17 16
 255 51 2 0 ?54 0 0 52 0 0 16 17 255 54 0 0 0 0 0 55 51 0 0 +17 55 0 0 0 0 0 54
 51 0 0 -74 20 50 2 0 0 48 14 0 0 0 0 0 0 0 0 0 0 0 0 0 0 0 0 0 0 81 1 48 6 38 3
 0 14 0 0 56 83 3 56 .3019607843137255 .427450980392157 .701960784313725 80 1 47
 57 58 8038 0 0 0 0 0 0 0 0 0 TTTTTTTTTTTTTFTF10 98 255 4 49 65 114 99 49 79 14
 58 SDL/TYSA_UNAME81 1 7 54 38 2 59 0 0 0 60 70 8 0 4 T2 0 0 5 20 1 61 61 13 9 3
0 0 2 0 62 0 0 63 0 51 255 10 29 0 62 64 0 0 -0 0 .0508 0 0 -1 .0635000000004346
 -1 0 0 31 11 24 0 65 66 0 0 +0 0 0 0 0 1 1 0 0 .0635000000004346 19 12 1 0 2 63
 0 67 0 V0 16 13 2 68 ?69 0 65 66 0 0 2 81 1 68 55 41 13 70 0 71 72 73 17 69 0 7
4 69 69 0 75 13 0 0 +16 65 21 72 ?76 13 0 11 0 0 2 31 66 4 0 13 0 11 0 +0 0 .050
8 0 0 1 1 0 0 .0635000000004346 81 1 72 56 41 65 77 0 68 0 78 17 76 0 79 76 76 0
 80 65 0 0 +15 255 79 27 0 76 62 0 17 80 0 81 80 80 0 76 65 0 0 -15 81 20 0 80 8
2 0 14 255 82 17 71 ?0 83 81 9 64 -0 0 0 83 67 81 1 71 53 41 82 84 0 85 68 86 14
 83 6 85 ?82 62 74 9 87 +0 0 82 62 67 50 255 64 23 0 82 87 10 0 +0 0 0 0 0 1 1 0
 0 13 67 3 0 0 0 0 0 0 12 62 14 62 26 88 ?83 0 89 9 10 -0 0 83 0 67 81 1 88 51 4
1 62 90 0 0 85 91 15 89 25 0 75 62 79 17 75 0 89 75 75 0 69 13 0 0 -80 1 41 0 92
 8001 0 0 0 0 3 5 0 0 0 FFFFTFTFFFFFFFFF2 81 1 90 47 93 62 0 88 77 94 95 81 1 85
 52 41 83 94 0 88 71 96 83 3 91 .611764705882353 .658823529411765 .6705882352941
18 81 1 94 48 93 83 0 85 90 84 97 83 3 96 .611764705882353 .658823529411765 .670
588235294118 80 1 93 98 99 9000 1 1 1 1 1 1 1 1 0 FFFFTFTFFFFFFFFF3 81 1 84 49 9
3 82 0 71 94 0 100 84 255 32 97 94056dd430ab318e5c317ab1935f8a8f84 32 100 87fefd
6940f562330d34dabd8ff081b279 15 99 UGS/ObjectState81 1 77 46 93 65 0 72 70 90 10
1 84 32 95 3ec8dd7a474f2abd2bf9bb4036fdaa0481 1 70 45 93 13 0 68 0 77 102 84 32
 101 014ebf2d222049bf870d966d14bc928c84 32 102 d4b5a8bad9ed0a4c26649ccb17e71acc7
9 15 92 SDL/TYSA_COLOUR50 87 7 0 83 0 64 0 +0 0 .0508 0 0 1 1 0 0 15 74 5 0 69 8
3 0 83 3 86 .611764705882353 .658823529411765 .670588235294118 83 3 78 .61176470
5882353 .658823529411765 .670588235294118 83 3 73 .611764705882353 .658823529411
765 .670588235294118 19 63 31 0 2 0 12 9 0 S0 74 20 61 5 0 0 103 59 84 72 7 0 0
 0 0 0 0 0 0 0 0 0 0 0 0 0 81 2 103 42 104 2 0 59 0 0 105 106 81 1 59 43 107 2 1
03 7 0 0 108 80 1 107 109 110 8051 0 0 0 0 3 5 0 0 0 TFTFFFFFFFFFFFFF1 82 255 1
 108 0 79 21 110 SDL/TYSA_SCALE_FACTOR80 2 104 111 112 8004 0 0 0 0 3 5 0 0 0 FF
TFFFFFFFFFFFFF2 3 83 1 105 7830.64504251646 84 8 106 Kg/Cu M 79 16 112 SDL/TYSA_
DENSITY83 3 60 .611764705882353 .658823529411765 .670588235294118 1 0 
